<svg width="1110" height="202" viewBox="0 0 1110 202" fill="none" xmlns="http://www.w3.org/2000/svg">
<g clip-path="url(#clip0_353_4499)">
<rect width="1110" height="202" fill="url(#paint0_linear_353_4499)"/>
<mask id="mask0_353_4499" style="mask-type:luminance" maskUnits="userSpaceOnUse" x="-36" y="105" width="156" height="156">
<path d="M41.9999 260.945C85.0478 260.945 119.945 226.048 119.945 183C119.945 139.952 85.0478 105.055 41.9999 105.055C-1.0479 105.055 -35.9451 139.952 -35.9451 183C-35.9451 226.048 -1.0479 260.945 41.9999 260.945Z" fill="white"/>
</mask>
<g mask="url(#mask0_353_4499)">
<path d="M-48.3267 214.762C-45.465 211.277 -42.5467 206.262 -38.0983 204.618C-33.1683 202.777 -31.1 205.78 -28.4367 209.378C-27.1617 211.135 -25.4333 212.467 -23.7617 213.345C-17.1317 216.802 -10.6717 212.552 -5.00499 208.783C-1.00999 206.148 3.58001 204.137 8.25501 203.428C16.1033 202.21 22.6767 206.12 26.5017 213.402C28.145 216.518 29.8167 220.258 31.8567 223.403C35.5683 229.183 39.875 232.385 46.7317 230.77C47.6383 230.572 48.545 230.232 49.5367 229.835C55.7417 227.37 59.4533 221.477 63.165 216.972C65.0067 214.733 66.48 212.863 67.755 211.532C70.5317 208.642 71.835 206.007 74.7533 203.995C75.9717 203.145 77.8133 202.153 79.9667 201.842C84.16 201.218 88.835 201.728 92.3483 205.695C94.6717 208.33 96.23 211.758 100.82 212.268C101.302 212.325 101.812 212.353 102.378 212.382C106.317 212.495 109.122 210.568 112.012 209.577C117.282 207.792 124.903 209.548 129.862 210.54" stroke="#00EB42" stroke-width="2" stroke-miterlimit="10"/>
<path d="M-48.2983 207.792C-45.4933 204.335 -42.6317 199.348 -38.2683 197.677C-33.3383 195.778 -31.3833 198.725 -28.72 202.352C-27.445 204.108 -25.66 205.412 -23.96 206.233C-17.33 209.435 -10.9833 205.185 -5.43001 201.388C-1.49167 198.697 2.98499 196.628 7.60333 195.835C15.4233 194.475 21.9117 198.413 25.8217 205.468C27.5217 208.528 29.3067 212.155 31.4033 215.158C35.285 220.655 39.6767 223.318 46.335 221.533C47.2133 221.307 48.12 220.938 49.0833 220.513C55.1467 217.935 58.8867 212.155 62.7683 207.933C64.695 205.837 66.225 204.165 67.5567 203.003C70.39 200.482 71.75 198.3 74.6117 196.742C75.83 196.09 77.6433 194.9 79.74 195.127C83.905 195.552 88.495 195.41 92.0367 199.093C94.4167 201.558 96.0883 204.647 100.678 204.987C101.16 205.015 101.67 205.043 102.237 205.043C106.147 205.1 108.952 203.4 111.842 202.607C117.112 201.162 124.563 203.06 129.522 203.627" stroke="#F3F3F3" stroke-width="2" stroke-miterlimit="10"/>
<path d="M-48.2417 200.822C-45.4934 197.365 -42.6884 192.463 -38.3817 190.735C-33.4517 188.752 -31.5817 191.698 -28.9467 195.325C-27.6717 197.11 -25.8584 198.357 -24.1017 199.122C-17.4717 202.04 -11.2667 197.818 -5.79837 193.965C-1.9167 191.245 2.44663 189.092 7.00829 188.213C14.7716 186.683 21.175 190.65 25.2266 197.535C27.0116 200.538 28.8533 204.08 31.0633 206.913C35.115 212.127 39.5916 214.252 46.0516 212.268C46.9016 212.013 47.8083 211.617 48.7433 211.192C54.665 208.5 58.4616 202.833 62.485 198.867C64.4683 196.912 66.0833 195.41 67.4433 194.418C70.3616 192.293 71.75 190.537 74.555 189.432C75.7733 188.95 77.5583 187.958 79.57 188.327C83.6783 189.092 88.2116 189.007 91.7816 192.378C94.2183 194.673 96.0316 197.393 100.593 197.62C101.075 197.648 101.585 197.648 102.123 197.648C105.977 197.677 108.782 196.203 111.672 195.58C116.913 194.475 124.223 196.543 129.182 196.628" stroke="#00EB42" stroke-width="2" stroke-miterlimit="10"/>
<path d="M-48.1851 193.852C-45.4934 190.395 -42.7451 185.55 -38.5234 183.793C-33.5934 181.725 -31.8367 184.643 -29.1734 188.298C-27.8984 190.083 -26.0284 191.302 -24.2434 192.01C-17.6134 194.673 -11.5501 190.452 -6.13839 186.57C-2.34172 183.822 1.96494 181.612 6.44161 180.62C14.1766 178.948 20.4666 182.943 24.6316 189.602C26.4733 192.577 28.4283 195.977 30.7233 198.668C34.9449 203.598 39.4783 205.185 45.7399 203.032C46.5899 202.748 47.4683 202.323 48.3749 201.898C54.1549 199.093 57.9799 193.54 62.1733 189.857C64.2416 188.015 65.9133 186.74 67.3016 185.89C70.2766 184.162 71.7216 182.858 74.4983 182.178C75.7166 181.895 77.5016 181.073 79.3999 181.583C83.4233 182.688 87.9283 182.688 91.5266 185.72C94.0199 187.845 95.9749 190.225 100.48 190.282C100.962 190.282 101.472 190.282 102.01 190.282C105.807 190.253 108.64 189.007 111.53 188.582C116.772 187.788 123.912 190.055 128.842 189.687" stroke="#F3F3F3" stroke-width="2" stroke-miterlimit="10"/>
<path d="M-48.1567 186.882C-45.5217 183.453 -42.8301 178.665 -38.6651 176.852C-33.7351 174.727 -32.0634 177.617 -29.4284 181.272C-28.1534 183.057 -26.2551 184.247 -24.4417 184.898C-17.8117 187.335 -11.8901 183.113 -6.56341 179.147C-2.82341 176.37 1.36992 174.075 5.81826 172.998C13.5249 171.157 19.7299 175.208 24.0083 181.64C25.9349 184.558 27.9749 187.873 30.3549 190.395C34.7183 195.042 39.3649 196.09 45.4283 193.767C46.2499 193.455 47.0999 193.03 48.0066 192.548C53.6733 189.63 57.5266 184.162 61.8616 180.762C64.0149 179.062 65.7149 177.957 67.1883 177.305C70.2199 175.945 71.7216 175.095 74.4416 174.868C75.6599 174.755 77.3316 174.528 79.2583 174.812C83.4233 175.407 87.6732 176.313 91.2999 179.062C93.8499 180.988 95.9466 183.028 100.423 182.972C100.905 182.972 101.387 182.943 101.925 182.943C105.665 182.858 108.498 181.838 111.417 181.612C116.63 181.158 123.628 183.567 128.558 182.745" stroke="#00EB42" stroke-width="2" stroke-miterlimit="10"/>
<path d="M-48.1001 179.912C-45.5218 176.483 -42.8868 171.752 -38.8068 169.91C-33.8768 167.7 -32.2901 170.562 -29.6834 174.245C-28.4084 176.058 -26.4534 177.192 -24.6118 177.787C-17.9818 179.968 -12.1734 175.747 -6.9601 171.723C-3.27677 168.89 0.803237 166.51 5.1949 165.377C12.8449 163.393 18.9649 167.445 23.3566 173.707C25.3682 176.568 27.4649 179.77 29.9582 182.15C34.4916 186.542 39.2232 187.023 45.0882 184.53C45.9099 184.19 46.7316 183.737 47.6099 183.255C53.1349 180.223 57.0449 174.868 61.5216 171.752C63.7599 170.193 65.5166 169.258 67.0182 168.777C70.0782 167.813 71.6932 167.417 74.3282 167.615C75.5466 167.7 77.1899 167.672 79.0316 168.068C83.1966 169.003 87.3332 169.967 90.9599 172.403C93.5666 174.16 95.7766 175.832 100.253 175.633C100.735 175.605 101.217 175.605 101.755 175.577C105.467 175.463 108.3 174.67 111.19 174.613C116.403 174.5 123.232 177.078 128.162 175.803" stroke="#F3F3F3" stroke-width="2" stroke-miterlimit="10"/>
<path d="M-48.0435 172.942C-45.5218 169.542 -42.9435 164.867 -38.9201 162.997C-33.9901 160.702 -32.5168 163.563 -29.8818 167.247C-28.6068 169.06 -26.6235 170.165 -24.7251 170.703C-18.0951 172.63 -12.4285 168.408 -7.30013 164.357C-3.67346 161.495 0.32154 159.03 4.62821 157.812C12.2499 155.658 18.2849 159.767 22.7615 165.802C24.8582 168.607 27.0399 171.723 29.5899 173.933C34.2932 178.042 39.0815 177.985 44.7765 175.293C45.5699 174.925 46.3915 174.443 47.2415 173.933C52.6249 170.788 56.5632 165.547 61.2099 162.685C63.5332 161.268 65.3465 160.503 66.8765 160.22C69.9932 159.625 71.6932 159.738 74.2715 160.333C75.4899 160.617 77.0765 160.787 78.8615 161.325C83.0265 162.572 87.0782 163.62 90.7049 165.745C93.3965 167.332 95.7199 168.663 100.168 168.323C100.65 168.295 101.132 168.267 101.642 168.238C105.297 168.068 108.158 167.502 111.048 167.615C116.262 167.813 122.92 170.59 127.822 168.862" stroke="#00EB42" stroke-width="2" stroke-miterlimit="10"/>
<path d="M-47.9868 166C-45.5218 162.6 -43.0001 157.982 -39.0618 156.083C-34.1318 153.703 -32.7435 156.537 -30.1368 160.248C-28.8618 162.062 -26.8218 163.138 -24.8951 163.62C-18.2652 165.32 -12.7402 161.098 -7.69682 156.962C-4.15515 154.072 -0.24515 151.522 4.00485 150.247C11.5982 147.923 17.5482 152.06 22.1382 157.925C24.2915 160.673 26.5865 163.677 29.2215 165.745C34.0948 169.57 38.9682 168.975 44.4649 166.113C45.2582 165.717 46.0232 165.207 46.8732 164.697C52.1149 161.438 56.1099 156.31 60.8982 153.732C63.3065 152.428 65.1482 151.862 66.7632 151.748C69.9365 151.522 71.6932 152.117 74.2149 153.137C75.4332 153.618 76.9915 153.987 78.7199 154.638C82.8849 156.253 86.8515 157.302 90.4782 159.172C93.2265 160.588 95.6915 161.552 100.083 161.07C100.565 161.013 101.047 160.985 101.557 160.957C105.155 160.758 108.017 160.418 110.935 160.702C116.12 161.24 122.637 164.158 127.538 161.977" stroke="#F3F3F3" stroke-width="2" stroke-miterlimit="10"/>
<path d="M-47.9583 159.03C-45.5499 155.63 -43.0849 151.068 -39.2316 149.142C-34.3016 146.677 -33.0266 149.482 -30.4199 153.222C-29.1449 155.063 -27.0483 156.083 -25.0933 156.508C-18.4916 157.982 -13.0799 153.732 -8.12158 149.538C-4.63658 146.592 -0.839917 143.985 3.35342 142.625C10.8901 140.16 16.7834 144.325 21.4584 149.963C23.6967 152.655 26.0767 155.573 28.7967 157.472C33.8401 161.013 38.7701 159.852 44.0967 156.848C44.8617 156.423 45.6268 155.885 46.4484 155.347C51.5484 151.975 55.6001 146.96 60.5301 144.665C62.9951 143.503 64.9218 143.248 66.5651 143.192C69.7951 143.05 71.6084 144.438 74.0734 145.855C75.2634 146.535 76.7934 147.102 78.4651 147.895C82.6018 149.85 86.4834 150.955 90.1384 152.513C92.9717 153.732 95.5501 154.383 99.9134 153.76C100.367 153.703 100.877 153.647 101.358 153.618C104.9 153.363 107.79 153.25 110.68 153.732C115.865 154.61 122.212 157.698 127.085 155.063" stroke="#00EB42" stroke-width="2" stroke-miterlimit="10"/>
<path d="M-47.9016 152.06C-45.5499 148.66 -43.1416 144.155 -39.3449 142.2C-34.4433 139.65 -33.2249 142.455 -30.6183 146.195C-29.3433 148.037 -27.2183 149.028 -25.2066 149.425C-18.6049 150.672 -13.3066 146.393 -8.43328 142.172C-5.00494 139.197 -1.29328 136.505 2.84339 135.06C10.3517 132.425 16.1601 136.618 20.9484 142.058C23.2717 144.722 25.7084 147.498 28.5417 149.255C33.7551 152.513 38.7701 150.813 43.8984 147.64C44.6351 147.187 45.4 146.648 46.1934 146.082C51.18 142.597 55.2317 137.667 60.3317 135.655C62.8817 134.635 64.8651 134.408 66.5367 134.663C69.8234 135.145 71.6934 136.788 74.13 138.602C75.32 139.48 76.7934 140.245 78.4367 141.152C82.5451 143.475 86.3701 144.58 90.0251 145.883C92.9434 146.903 95.6067 147.215 99.9701 146.45C100.423 146.365 100.905 146.308 101.415 146.28C104.928 145.997 107.79 146.082 110.708 146.762C115.893 147.952 122.07 151.238 126.943 148.15" stroke="#F3F3F3" stroke-width="2" stroke-miterlimit="10"/>
<path d="M-47.845 145.09C-45.55 141.718 -43.1983 137.27 -39.4866 135.258C-34.585 132.623 -33.48 135.4 -30.8733 139.168C-29.5983 141.01 -27.4166 142.002 -25.3766 142.313C-18.775 143.333 -13.6183 139.055 -8.82997 134.748C-5.45831 131.745 -1.85997 128.968 2.22003 127.438C9.70003 124.633 15.4234 128.855 20.2967 134.125C22.705 136.732 25.2267 139.423 28.145 141.038C33.5 144.013 38.6 141.747 43.5584 138.432C44.295 137.95 45.0034 137.383 45.7967 136.817C50.6417 133.218 54.75 128.402 59.9917 126.673C62.6267 125.795 64.6667 125.738 66.395 126.163C69.7384 127.013 71.665 129.167 74.045 131.377C75.235 132.482 76.6517 133.417 78.2384 134.465C82.3184 137.128 86.0867 138.262 89.7417 139.282C92.7167 140.103 95.5217 140.075 99.8284 139.197C100.282 139.112 100.763 139.027 101.245 138.97C104.702 138.63 107.592 138.97 110.51 139.82C115.667 141.35 121.702 144.778 126.575 141.237" stroke="#00EB42" stroke-width="2" stroke-miterlimit="10"/>
<path d="M-47.7883 138.12C-45.55 134.748 -43.2833 130.357 -39.6283 128.317C-34.7267 125.597 -33.7067 128.373 -31.1283 132.142C-29.8533 134.012 -27.6433 134.947 -25.575 135.202C-18.9733 135.995 -13.9583 131.688 -9.25499 127.353C-5.93999 124.293 -2.45499 121.46 1.56834 119.845C8.99167 116.87 14.6583 121.12 19.6167 126.192C22.11 128.713 24.7167 131.32 27.6917 132.793C33.2167 135.485 38.3733 132.68 43.1617 129.167C43.87 128.657 44.5783 128.062 45.3433 127.467C50.0467 123.755 54.2117 119.052 59.595 117.578C62.315 116.842 64.4117 116.955 66.1683 117.578C69.5683 118.768 71.5233 121.432 73.9033 124.067C75.065 125.37 76.4533 126.503 77.9833 127.665C82.0067 130.697 85.7467 131.83 89.4017 132.567C92.4617 133.19 95.38 132.85 99.6584 131.802C100.112 131.688 100.593 131.603 101.075 131.547C104.475 131.178 107.393 131.717 110.283 132.765C115.44 134.607 121.305 138.233 126.15 134.238" stroke="#F3F3F3" stroke-width="2" stroke-miterlimit="10"/>
<path d="M-47.76 131.15C-45.55 127.807 -43.34 123.443 -39.7417 121.403C-34.84 118.598 -33.9333 121.347 -31.3267 125.143C-30.0517 127.013 -27.785 127.92 -25.6883 128.118C-19.0867 128.685 -14.185 124.35 -9.59501 119.958C-6.36501 116.87 -2.96501 113.952 1.00166 112.252C8.39666 109.107 13.9783 113.385 19.05 118.287C21.6283 120.752 24.32 123.273 27.38 124.577C33.075 126.985 38.2883 123.613 42.9067 119.958C43.5867 119.42 44.295 118.797 45.0317 118.202C49.5933 114.377 53.7867 109.787 59.34 108.597C62.145 108.002 64.2983 108.257 66.1117 109.078C69.5683 110.637 71.5517 113.81 73.9033 116.842C75.065 118.343 76.3967 119.703 77.8983 120.978C81.865 124.378 85.5767 125.512 89.2317 125.993C92.3767 126.418 95.38 125.738 99.6583 124.577C100.112 124.463 100.593 124.35 101.047 124.293C104.39 123.868 107.308 124.633 110.227 125.88C115.383 128.062 121.078 131.858 125.923 127.382" stroke="#00EB42" stroke-width="2" stroke-miterlimit="10"/>
<path d="M-47.7034 124.18C-45.5784 120.837 -43.425 116.53 -39.8834 114.462C-35.01 111.572 -34.16 114.32 -31.5817 118.117C-30.3067 119.987 -28.0117 120.893 -25.8584 121.007C-19.2567 121.375 -14.4967 116.983 -9.9917 112.535C-6.81837 109.418 -3.50337 106.387 0.378301 104.63C7.71663 101.315 13.2416 105.622 18.3983 110.325C21.0616 112.733 23.81 115.142 26.9833 116.303C32.8483 118.428 38.1183 114.49 42.5383 110.693C43.2183 110.127 43.8983 109.475 44.5783 108.852C48.9983 104.913 53.2483 100.437 58.9433 99.5016C61.8333 99.0483 64.0433 99.4733 65.885 100.493C69.4266 102.42 71.4383 106.075 73.7333 109.532C74.8666 111.232 76.17 112.79 77.615 114.178C81.525 117.947 85.18 119.052 88.8633 119.278C92.065 119.477 95.21 118.485 99.46 117.182C99.9133 117.04 100.367 116.927 100.848 116.87C104.135 116.388 107.082 117.408 110 118.825C115.128 121.318 120.682 125.285 125.527 120.383" stroke="#F3F3F3" stroke-width="2" stroke-miterlimit="10"/>
<path d="M-47.6467 117.21C-45.5784 113.895 -43.4817 109.617 -40.0251 107.52C-35.1517 104.545 -34.3867 107.265 -31.8084 111.09C-30.5334 112.988 -28.1817 113.838 -26.0001 113.895C-19.3984 114.037 -14.7801 109.645 -10.3601 105.14C-7.24339 101.967 -4.04172 98.8783 -0.188391 97.0367C7.12161 93.5517 12.5616 97.8867 17.8033 102.42C20.5516 104.772 23.3849 107.095 26.6433 108.087C32.6783 109.928 38.0049 105.423 42.2549 101.485C42.9066 100.862 43.5583 100.238 44.2383 99.5867C48.5449 95.535 52.7949 91.1717 58.6599 90.52C61.6066 90.2083 63.9016 90.8033 65.7716 91.9933C69.3699 94.26 71.4099 98.425 73.7049 102.307C74.8099 104.205 76.0566 105.962 77.5016 107.492C81.3549 111.628 84.9816 112.96 88.665 112.677C91.9233 112.422 95.21 111.373 99.4033 109.928C99.8566 109.758 100.31 109.673 100.763 109.588C104.022 109.078 106.968 110.297 109.858 111.883C114.987 114.717 120.342 118.853 125.187 113.498" stroke="#00EB42" stroke-width="2" stroke-miterlimit="10"/>
<path d="M-47.5901 110.24C-45.5784 106.953 -43.5668 102.732 -40.1668 100.607C-35.2934 97.5466 -34.6418 100.238 -32.0634 104.092C-30.7884 105.99 -28.4084 106.783 -26.1701 106.812C-19.5684 106.925 -15.0918 102.307 -10.7568 97.745C-7.69675 94.5433 -4.60842 91.37 -0.811757 89.4716C6.44158 85.8166 11.8249 90.18 17.1799 94.515C20.0132 96.81 22.9316 99.02 26.2749 99.87C32.4799 101.428 37.8632 96.385 41.9432 92.2483C42.5666 91.5966 43.2183 90.945 43.8699 90.265C48.0349 86.1 52.3416 81.85 58.3483 81.4816C61.3799 81.2833 63.7316 82.0766 65.6582 83.465C69.3416 86.1 71.3816 90.775 73.6483 95.0533C74.7533 97.15 75.9433 99.105 77.3316 100.748C81.0999 105.253 84.6982 106.302 88.4099 106.047C91.7532 105.792 95.1249 104.205 99.3182 102.647C99.7716 102.477 100.225 102.363 100.678 102.278C103.88 101.712 106.855 103.157 109.745 104.942C114.873 108.087 120.058 112.422 124.903 106.585" stroke="#F3F3F3" stroke-width="2" stroke-miterlimit="10"/>
</g>
<mask id="mask1_353_4499" style="mask-type:luminance" maskUnits="userSpaceOnUse" x="994" y="-52" width="156" height="156">
<path d="M1072 103.945C1115.05 103.945 1149.95 69.0478 1149.95 26C1149.95 -17.0478 1115.05 -51.945 1072 -51.945C1028.95 -51.945 994.055 -17.0478 994.055 26C994.055 69.0478 1028.95 103.945 1072 103.945Z" fill="white"/>
</mask>
<g mask="url(#mask1_353_4499)">
<path d="M981.22 120.463C984.592 116.893 987.992 111.255 993.12 110.008C1000.43 108.223 1003.32 116.213 1007.66 120.237C1014.06 126.187 1021.96 121.653 1028.42 118.395C1040.15 112.473 1057.75 112.7 1062.06 127.717C1065.17 138.568 1066.53 159.705 1082.88 156.56C1093.96 154.407 1096.03 140.24 1098.95 131.372C1101.04 125.053 1102.15 118.31 1105.32 112.36C1109.15 105.22 1119.86 97.995 1124.62 108.507C1126.71 113.153 1126.8 120.69 1133.31 121.427C1137.71 121.937 1140.4 117.942 1143.29 115.335C1148.61 110.518 1157.74 110.773 1162.78 115.873" stroke="#00EB42" stroke-width="2" stroke-miterlimit="10"/>
<path d="M981.277 113.493C984.592 109.923 987.935 104.37 992.979 103.067C997.937 101.792 1000.74 105.022 1003.46 108.507C1004.77 110.178 1006.07 111.85 1007.49 113.125C1013.92 118.792 1021.65 114.287 1028.03 110.972C1032.53 108.62 1037.89 107.175 1043.04 107.175C1051.18 107.118 1058.66 110.83 1061.43 119.783C1062.51 123.297 1063.44 127.858 1064.78 132.278C1067.18 140.297 1070.87 147.692 1079.23 147.635C1080.25 147.635 1081.35 147.493 1082.51 147.238C1089.79 145.68 1093.22 138.965 1095.69 132.193C1096.91 128.878 1097.84 125.535 1098.83 122.815C1100.99 116.865 1102.15 110.603 1105.29 105.078C1106.65 102.727 1108.83 100.347 1111.33 98.7316C1115.83 95.8416 1121.27 95.3883 1124.39 101.82C1126.34 105.843 1126.74 112.077 1131.59 113.692C1132.1 113.862 1132.63 113.975 1133.26 114.032C1137.59 114.485 1140.28 110.745 1143.2 108.308C1148.53 103.832 1157.48 104.257 1162.5 108.903" stroke="#00EB42" stroke-width="2" stroke-miterlimit="10"/>
<path d="M981.305 106.523C984.564 102.982 987.85 97.485 992.837 96.125C997.795 94.765 1000.52 97.9666 1003.21 101.48C1004.51 103.18 1005.87 104.795 1007.32 106.013C1013.8 111.397 1021.34 106.92 1027.63 103.577C1032.08 101.197 1037.32 99.695 1042.42 99.5816C1050.52 99.4116 1057.86 103.095 1060.78 111.85C1061.94 115.307 1062.96 119.783 1064.38 124.033C1066.96 131.768 1070.73 138.653 1078.86 138.398C1079.88 138.37 1080.93 138.2 1082.09 137.945C1089.23 136.273 1092.68 129.643 1095.32 123.183C1096.62 120.01 1097.61 116.865 1098.66 114.287C1100.9 108.705 1102.06 102.897 1105.18 97.825C1106.51 95.6716 1108.66 93.4333 1111.13 92.0166C1115.58 89.41 1120.93 89.07 1124.11 95.2183C1126.09 99.0716 1126.66 104.965 1131.44 106.438C1131.95 106.58 1132.49 106.693 1133.09 106.75C1137.39 107.147 1140.09 103.633 1142.98 101.395C1148.27 97.2583 1157.06 97.8533 1162.1 102.018" stroke="#00EB42" stroke-width="2" stroke-miterlimit="10"/>
<path d="M981.362 99.5533C984.563 96.0116 987.793 90.6 992.695 89.1833C997.625 87.7666 1000.26 90.94 1002.95 94.4533C1004.26 96.1533 1005.67 97.74 1007.15 98.9016C1013.66 104.002 1021.06 99.5816 1027.23 96.1533C1031.63 93.745 1036.78 92.1583 1041.8 91.96C1049.87 91.6483 1057.1 95.36 1060.16 103.888C1061.38 107.288 1062.51 111.652 1064.01 115.76C1066.76 123.212 1070.58 129.587 1078.55 129.105C1079.54 129.048 1080.59 128.878 1081.72 128.595C1088.75 126.81 1092.23 120.293 1095.01 114.117C1096.37 111.057 1097.44 108.11 1098.52 105.73C1100.84 100.545 1102.01 95.19 1105.09 90.5433C1106.43 88.56 1108.49 86.52 1110.93 85.245C1115.32 82.9216 1120.59 82.695 1123.82 88.5317C1125.86 92.215 1126.54 97.74 1131.33 99.0717C1131.84 99.2133 1132.38 99.2983 1132.97 99.355C1137.22 99.7233 1139.94 96.4366 1142.83 94.3683C1148.13 90.5716 1156.75 91.3367 1161.79 95.0483" stroke="#F3F3F3" stroke-width="2" stroke-miterlimit="10"/>
<path d="M981.418 92.5833C984.563 89.0416 987.737 83.715 992.553 82.27C997.483 80.7966 1000.03 83.9133 1002.73 87.455C1004.03 89.155 1005.47 90.7133 1007 91.8183C1013.55 96.635 1020.77 92.2433 1026.87 88.7866C1031.17 86.3216 1036.24 84.6783 1041.23 84.395C1049.25 83.9133 1056.39 87.6816 1059.56 96.0116C1060.84 99.3833 1062.08 103.633 1063.67 107.572C1066.59 114.74 1070.47 120.605 1078.26 119.925C1079.23 119.84 1080.27 119.642 1081.38 119.33C1088.26 117.432 1091.78 111.028 1094.72 105.107C1096.17 102.188 1097.3 99.4116 1098.41 97.2016C1100.82 92.385 1102.01 87.5116 1105.07 83.29C1106.37 81.505 1108.41 79.635 1110.79 78.53C1115.15 76.49 1120.31 76.3766 1123.6 81.9016C1125.66 85.3866 1126.51 90.6 1131.27 91.79C1131.78 91.9033 1132.32 92.0166 1132.89 92.045C1137.08 92.3566 1139.83 89.2966 1142.72 87.4266C1148.02 83.97 1156.46 84.8766 1161.48 88.1633" stroke="#00EB42" stroke-width="2" stroke-miterlimit="10"/>
<path d="M981.475 85.6133C984.563 82.1 987.708 76.8016 992.44 75.3283C997.37 73.77 999.807 76.8866 1002.5 80.4283C1003.8 82.1566 1005.3 83.63 1006.86 84.7066C1013.44 89.24 1020.49 84.8766 1026.5 81.3633C1030.75 78.87 1035.71 77.17 1040.64 76.7733C1048.63 76.15 1055.62 79.9466 1058.97 88.05C1060.33 91.365 1061.63 95.5016 1063.3 99.2983C1066.39 106.183 1070.36 111.51 1077.95 110.66C1078.91 110.547 1079.93 110.32 1081.01 110.008C1087.75 107.997 1091.32 101.678 1094.41 96.0683C1095.94 93.2916 1097.13 90.685 1098.29 88.645C1100.79 84.1966 1101.98 79.7766 1105.01 76.0083C1106.28 74.4216 1108.3 72.7216 1110.65 71.7583C1114.95 70.0016 1120.03 70.03 1123.37 75.2433C1125.49 78.5583 1126.49 83.4033 1131.19 84.4516C1131.67 84.565 1132.21 84.65 1132.8 84.6783C1136.94 84.9616 1139.69 82.1283 1142.58 80.4283C1147.88 77.3116 1156.15 78.3883 1161.17 81.1933" stroke="#F3F3F3" stroke-width="2" stroke-miterlimit="10"/>
<path d="M981.503 78.6433C984.535 75.13 987.623 69.9167 992.27 68.3867C997.2 66.7717 999.552 69.8317 1002.24 73.4017C1003.55 75.13 1005.11 76.575 1006.66 77.595C1013.27 81.8733 1020.15 77.5383 1026.1 73.94C1030.29 71.4183 1035.17 69.6333 1040.01 69.1517C1047.97 68.3867 1054.86 72.2117 1058.32 80.1167C1059.73 83.375 1061.15 87.4267 1062.91 91.0533C1066.14 97.655 1070.22 102.472 1077.61 101.423C1078.55 101.282 1079.54 101.027 1080.61 100.687C1087.22 98.5617 1090.81 92.3567 1094.07 87.0017C1095.69 84.3667 1096.96 81.9583 1098.12 80.0883C1100.67 76.0367 1101.89 72.07 1104.92 68.7267C1106.2 67.31 1108.15 65.78 1110.45 65.015C1114.73 63.5417 1119.69 63.6833 1123.09 68.585C1125.27 71.73 1126.37 76.235 1131.08 77.1417C1131.56 77.2267 1132.1 77.3117 1132.66 77.34C1136.77 77.5667 1139.52 74.96 1142.41 73.43C1147.71 70.6533 1155.81 71.9 1160.83 74.2517" stroke="#00EB42" stroke-width="2" stroke-miterlimit="10"/>
<path d="M981.56 71.6733C984.535 68.16 987.567 63.0316 992.157 61.445C997.087 59.745 999.353 62.805 1002.02 66.375C1003.29 68.1033 1004.94 69.52 1006.52 70.4833C1013.12 74.4783 1019.9 70.1716 1025.73 66.545C1029.87 63.9666 1034.63 62.125 1039.42 61.5866C1047.32 60.68 1054.12 64.505 1057.69 72.2116C1059.19 75.4133 1060.67 79.3516 1062.54 82.8366C1065.94 89.1833 1070.07 93.4333 1077.3 92.1866C1078.23 92.0166 1079.2 91.7333 1080.25 91.3933C1086.71 89.155 1090.36 83.0633 1093.76 77.9916C1095.43 75.47 1096.79 73.26 1097.98 71.56C1100.62 67.8766 1101.86 64.3633 1104.84 61.4733C1106.09 60.255 1108.01 58.895 1110.25 58.2716C1114.5 57.0816 1119.37 57.3366 1122.8 61.9266C1125.01 64.9016 1126.29 69.0383 1130.96 69.8033C1131.44 69.8883 1131.98 69.945 1132.55 69.9733C1136.6 70.1716 1139.38 67.7916 1142.27 66.4316C1147.57 63.9666 1155.5 65.3833 1160.49 67.31" stroke="#F3F3F3" stroke-width="2" stroke-miterlimit="10"/>
<path d="M981.617 64.7317C984.535 61.2467 987.51 56.1467 992.015 54.5317C996.945 52.775 999.098 55.7783 1001.76 59.3767C1003.04 61.1333 1004.71 62.4933 1006.35 63.4C1012.98 67.1117 1019.58 62.8333 1025.34 59.15C1029.39 56.5433 1034.06 54.6167 1038.79 53.9933C1046.67 52.9166 1053.36 56.7983 1057.07 64.2783C1058.63 67.4517 1060.21 71.2767 1062.17 74.5917C1065.74 80.655 1069.96 84.395 1076.99 82.95C1077.89 82.7517 1078.86 82.4683 1079.88 82.0717C1086.22 79.72 1089.88 73.7417 1093.45 68.925C1095.21 66.545 1096.62 64.505 1097.87 63.0033C1100.56 59.7167 1101.84 56.6567 1104.78 54.1917C1106.03 53.1433 1107.9 51.9817 1110.11 51.5283C1114.33 50.6217 1119.09 50.99 1122.58 55.2967C1124.84 58.1017 1126.26 61.8983 1130.91 62.5217C1131.39 62.5783 1131.93 62.635 1132.49 62.6633C1136.49 62.805 1139.26 60.6517 1142.15 59.49C1147.42 57.365 1155.22 58.9517 1160.2 60.3967" stroke="#00EB42" stroke-width="2" stroke-miterlimit="10"/>
<path d="M981.673 57.7616C984.535 54.2766 987.453 49.2616 991.902 47.6183C996.832 45.7766 998.9 48.78 1001.56 52.3783C1002.84 54.135 1004.57 55.4666 1006.24 56.345C1012.87 59.8016 1019.33 55.5516 1025 51.7833C1028.99 49.1483 1033.58 47.1366 1038.26 46.4283C1046.1 45.21 1052.68 49.12 1056.5 56.4016C1058.15 59.5183 1059.82 63.2583 1061.86 66.4033C1065.57 72.1833 1069.88 75.385 1076.73 73.77C1077.64 73.5716 1078.55 73.2316 1079.54 72.835C1085.74 70.37 1089.45 64.4766 1093.17 59.9716C1095.01 57.7333 1096.48 55.8633 1097.76 54.5316C1100.53 51.6416 1101.84 49.0066 1104.75 46.995C1105.97 46.145 1107.81 45.1533 1109.97 44.8416C1114.16 44.2183 1118.84 44.7283 1122.35 48.695C1124.67 51.33 1126.23 54.7583 1130.82 55.2683C1131.3 55.325 1131.81 55.3533 1132.38 55.3816C1136.32 55.495 1139.12 53.5683 1142.01 52.5766C1147.28 50.7916 1154.9 52.5483 1159.86 53.54" stroke="#F3F3F3" stroke-width="2" stroke-miterlimit="10"/>
<path d="M981.702 50.7917C984.507 47.335 987.368 42.3483 991.732 40.6767C996.662 38.7783 998.617 41.725 1001.28 45.3517C1002.55 47.1083 1004.34 48.4117 1006.04 49.2333C1012.67 52.435 1019.02 48.185 1024.57 44.3883C1028.51 41.6967 1032.98 39.6283 1037.6 38.835C1045.42 37.475 1051.91 41.4133 1055.82 48.4683C1057.52 51.5283 1059.31 55.155 1061.4 58.1583C1065.28 63.655 1069.68 66.3183 1076.33 64.5333C1077.21 64.3067 1078.12 63.9383 1079.08 63.5133C1085.15 60.935 1088.89 55.155 1092.77 50.9333C1094.69 48.8367 1096.22 47.165 1097.56 46.0033C1100.39 43.4817 1101.75 41.3 1104.61 39.7417C1105.83 39.09 1107.64 37.9 1109.74 38.1267C1113.9 38.5517 1118.49 38.41 1122.04 42.0933C1124.42 44.5583 1126.09 47.6467 1130.68 47.9867C1131.16 48.015 1131.67 48.0433 1132.24 48.0433C1136.15 48.1 1138.95 46.4 1141.84 45.6067C1147.11 44.1617 1154.56 46.06 1159.52 46.6267" stroke="#00EB42" stroke-width="2" stroke-miterlimit="10"/>
<path d="M981.759 43.8217C984.507 40.365 987.312 35.4633 991.619 33.735C996.549 31.7517 998.419 34.6983 1001.05 38.325C1002.33 40.11 1004.14 41.3567 1005.9 42.1217C1012.53 45.04 1018.73 40.8183 1024.2 36.965C1028.08 34.245 1032.45 32.0917 1037.01 31.2133C1044.77 29.6833 1051.18 33.65 1055.23 40.535C1057.01 43.5383 1058.85 47.08 1061.06 49.9133C1065.12 55.1267 1069.59 57.2517 1076.05 55.2683C1076.9 55.0133 1077.81 54.6167 1078.74 54.1917C1084.67 51.5 1088.46 45.8333 1092.49 41.8667C1094.47 39.9117 1096.08 38.41 1097.44 37.4183C1100.36 35.2933 1101.75 33.5367 1104.56 32.4317C1105.77 31.95 1107.56 30.9583 1109.57 31.3267C1113.68 32.0917 1118.21 32.0067 1121.78 35.3783C1124.22 37.6733 1126.03 40.3933 1130.59 40.62C1131.08 40.6483 1131.59 40.6483 1132.12 40.6483C1135.98 40.6767 1138.78 39.2033 1141.67 38.58C1146.91 37.475 1154.22 39.5433 1159.18 39.6283" stroke="#F3F3F3" stroke-width="2" stroke-miterlimit="10"/>
<path d="M981.815 36.8516C984.507 33.395 987.255 28.55 991.477 26.7933C996.407 24.725 998.164 27.6433 1000.83 31.2983C1002.1 33.0833 1003.97 34.3016 1005.76 35.01C1012.39 37.6733 1018.45 33.4516 1023.86 29.57C1027.66 26.8216 1031.97 24.6116 1036.44 23.62C1044.18 21.9483 1050.47 25.9433 1054.63 32.6016C1056.47 35.5766 1058.43 38.9766 1060.72 41.6683C1064.95 46.5983 1069.48 48.185 1075.74 46.0316C1076.59 45.7483 1077.47 45.3233 1078.38 44.8983C1084.16 42.0933 1087.98 36.54 1092.17 32.8566C1094.24 31.015 1095.91 29.74 1097.3 28.89C1100.28 27.1616 1101.72 25.8583 1104.5 25.1783C1105.72 24.895 1107.5 24.0733 1109.4 24.5833C1113.42 25.6883 1117.93 25.6883 1121.53 28.72C1124.02 30.845 1125.98 33.225 1130.48 33.2816C1130.96 33.2816 1131.47 33.2816 1132.01 33.2816C1135.81 33.2533 1138.64 32.0066 1141.53 31.5816C1146.77 30.7883 1153.91 33.055 1158.84 32.6866" stroke="#00EB42" stroke-width="2" stroke-miterlimit="10"/>
<path d="M981.844 29.8817C984.479 26.4533 987.17 21.665 991.335 19.8516C996.265 17.7266 997.937 20.6167 1000.57 24.2717C1001.85 26.0567 1003.75 27.2467 1005.56 27.8983C1012.19 30.335 1018.11 26.1133 1023.44 22.1467C1027.18 19.37 1031.37 17.075 1035.82 15.9983C1043.53 14.1567 1049.73 18.2083 1054.01 24.64C1055.94 27.5583 1057.98 30.8733 1060.36 33.395C1064.72 38.0417 1069.37 39.09 1075.43 36.7667C1076.25 36.455 1077.1 36.03 1078.01 35.5483C1083.67 32.63 1087.53 27.1617 1091.86 23.7617C1094.02 22.0617 1095.72 20.9567 1097.19 20.305C1100.22 18.945 1101.72 18.095 1104.44 17.8683C1105.66 17.755 1107.33 17.5283 1109.26 17.8117C1113.42 18.4067 1117.67 19.3133 1121.3 22.0617C1123.85 23.9883 1125.95 26.0283 1130.42 25.9717C1130.91 25.9717 1131.39 25.9433 1131.93 25.9433C1135.67 25.8583 1138.5 24.8383 1141.42 24.6117C1146.63 24.1583 1153.63 26.5667 1158.56 25.745" stroke="#F3F3F3" stroke-width="2" stroke-miterlimit="10"/>
<path d="M981.9 22.9117C984.479 19.4833 987.114 14.7517 991.194 12.91C996.124 10.7 997.71 13.5617 1000.32 17.245C1001.59 19.0583 1003.55 20.1917 1005.39 20.7867C1012.02 22.9683 1017.83 18.7467 1023.04 14.7233C1026.72 11.89 1030.8 9.50999 1035.2 8.37666C1042.85 6.39332 1048.97 10.445 1053.36 16.7067C1055.37 19.5683 1057.47 22.77 1059.96 25.15C1064.49 29.5417 1069.22 30.0233 1075.09 27.53C1075.91 27.19 1076.73 26.7367 1077.61 26.255C1083.14 23.2233 1087.05 17.8683 1091.52 14.7517C1093.76 13.1933 1095.52 12.2583 1097.02 11.7767C1100.08 10.8133 1101.69 10.4167 1104.33 10.615C1105.55 10.7 1107.19 10.6717 1109.03 11.0683C1113.2 12.0033 1117.33 12.9667 1120.96 15.4033C1123.57 17.16 1125.78 18.8317 1130.25 18.6333C1130.74 18.605 1131.22 18.605 1131.76 18.5767C1135.47 18.4633 1138.3 17.67 1141.19 17.6133C1146.4 17.5 1153.23 20.0783 1158.16 18.8033" stroke="#00EB42" stroke-width="2" stroke-miterlimit="10"/>
<path d="M981.957 15.9417C984.479 12.5417 987.057 7.86665 991.08 5.99665C996.01 3.70165 997.484 6.56332 1000.12 10.2467C1001.39 12.06 1003.38 13.165 1005.28 13.7033C1011.91 15.63 1017.57 11.4083 1022.7 7.35665C1026.33 4.49499 1030.32 2.02999 1034.63 0.811657C1042.25 -1.34168 1048.29 2.76666 1052.76 8.80166C1054.86 11.6067 1057.04 14.7233 1059.59 16.9333C1064.29 21.0417 1069.08 20.985 1074.78 18.2933C1075.57 17.925 1076.39 17.4433 1077.24 16.9333C1082.63 13.7883 1086.56 8.54666 1091.21 5.68499C1093.53 4.26832 1095.35 3.50332 1096.88 3.21999C1099.99 2.62499 1101.69 2.73832 1104.27 3.33332C1105.49 3.61666 1107.08 3.78666 1108.86 4.32499C1113.03 5.57166 1117.08 6.61999 1120.71 8.74499C1123.4 10.3317 1125.72 11.6633 1130.17 11.3233C1130.65 11.295 1131.13 11.2667 1131.64 11.2383C1135.3 11.0683 1138.16 10.5017 1141.05 10.615C1146.26 10.8133 1152.92 13.59 1157.82 11.8617" stroke="#F3F3F3" stroke-width="2" stroke-miterlimit="10"/>
<path d="M982.014 8.99997C984.479 5.59997 987 0.981641 990.939 -0.916692C995.869 -3.29669 997.257 -0.46336 999.864 3.24831C1001.14 5.06164 1003.18 6.13831 1005.11 6.61998C1011.74 8.31998 1017.26 4.09831 1022.3 -0.038357C1025.85 -2.92836 1029.76 -5.47836 1034.01 -6.75336C1041.6 -9.07669 1047.55 -4.94003 1052.14 0.924975C1054.29 3.67331 1056.59 6.67664 1059.22 8.74498C1064.1 12.57 1068.97 11.975 1074.47 9.11331C1075.26 8.71664 1076.02 8.20664 1076.87 7.69664C1082.12 4.43831 1086.11 -0.690026 1090.9 -3.26836C1093.31 -4.57169 1095.15 -5.13836 1096.76 -5.25169C1099.94 -5.47836 1101.69 -4.88336 1104.22 -3.86336C1105.43 -3.38169 1106.99 -3.01336 1108.72 -2.36169C1112.89 -0.746694 1116.85 0.30164 1120.48 2.17164C1123.23 3.58831 1125.69 4.55164 1130.08 4.06998C1130.57 4.01331 1131.05 3.98497 1131.56 3.95664C1135.16 3.75831 1138.02 3.41831 1140.94 3.70164C1146.12 4.23998 1152.64 7.15831 1157.54 4.97664" stroke="#00EB42" stroke-width="2" stroke-miterlimit="10"/>
<path d="M982.042 2.03C984.45 -1.37 986.915 -5.93166 990.769 -7.85833C995.699 -10.3233 996.974 -7.51833 999.58 -3.77833C1000.86 -1.93667 1002.95 -0.916664 1004.91 -0.491664C1011.51 0.981669 1016.92 -3.26833 1021.88 -7.46167C1025.36 -10.4083 1029.16 -13.015 1033.35 -14.375C1040.89 -16.84 1046.78 -12.675 1051.46 -7.03667C1053.7 -4.345 1056.08 -1.42667 1058.8 0.471667C1063.84 4.01333 1068.77 2.85167 1074.1 -0.151665C1074.86 -0.576665 1075.63 -1.115 1076.45 -1.65333C1081.55 -5.025 1085.6 -10.04 1090.53 -12.335C1093 -13.4967 1094.92 -13.7517 1096.57 -13.8083C1099.8 -13.95 1101.61 -12.5617 1104.07 -11.145C1105.26 -10.465 1106.79 -9.89833 1108.47 -9.105C1112.6 -7.15 1116.48 -6.045 1120.14 -4.48667C1122.97 -3.26833 1125.55 -2.61666 1129.91 -3.24C1130.37 -3.29666 1130.88 -3.35333 1131.36 -3.38166C1134.9 -3.63666 1137.79 -3.75 1140.68 -3.26833C1145.87 -2.39 1152.21 0.698334 1157.09 -1.93667" stroke="#F3F3F3" stroke-width="2" stroke-miterlimit="10"/>
</g>
<path d="M454.991 117.939C451.554 116.156 445.826 115.138 438.061 115.011H434.114H431.059C428.386 115.011 426.222 114.756 424.822 114.502C423.294 114.12 422.403 113.738 422.021 113.356C421.639 112.974 421.385 112.465 421.385 111.701C421.385 111.065 421.512 110.428 421.894 110.046C422.276 109.664 423.294 109.282 424.949 108.9C426.604 108.519 428.641 108.391 431.823 108.391H433.732C435.769 108.391 437.042 108.519 438.57 108.773C440.097 109.028 441.243 109.282 442.134 109.537C442.898 109.792 443.534 110.301 444.044 110.683C444.553 111.192 444.807 111.574 444.935 111.828C445.062 112.083 445.189 112.465 445.189 112.847H458.81V112.337C458.81 111.065 458.555 109.919 458.174 108.9C457.792 107.755 457.028 106.736 455.882 105.591C454.736 104.445 453.336 103.554 451.554 102.79C449.772 102.026 447.481 101.39 444.553 100.881C441.625 100.372 438.188 100.117 434.369 100.117H430.423C426.731 100.117 423.549 100.372 420.748 100.753C417.948 101.263 415.784 101.772 414.129 102.536C412.474 103.299 411.201 104.19 410.182 105.209C409.164 106.227 408.528 107.373 408.146 108.391C407.764 109.41 407.636 110.555 407.636 111.828V112.337C407.636 119.466 414.511 123.285 428.131 123.667L431.186 123.794L435.26 123.922C438.315 124.049 440.734 124.176 442.389 124.558C444.043 124.94 445.062 125.322 445.571 125.831C446.08 126.34 446.208 126.977 446.208 127.74C446.208 128.377 446.08 128.886 445.826 129.268C445.571 129.65 445.062 130.159 444.298 130.541C443.534 130.923 442.261 131.305 440.479 131.559C438.697 131.814 437.679 131.941 435.005 131.941H431.95C423.931 131.941 421.003 129.905 420.748 125.831H407V126.34C407 127.486 407.127 128.632 407.382 129.777C407.636 130.796 408.273 132.069 409.291 133.342C410.31 134.615 411.583 135.76 413.365 136.779C415.02 137.67 417.438 138.561 420.621 139.197C423.676 139.834 427.368 140.216 431.568 140.216H435.515C439.588 140.216 443.152 139.961 446.08 139.452C449.135 138.943 451.427 138.306 453.209 137.542C454.991 136.779 456.391 135.76 457.41 134.615C458.428 133.469 459.192 132.323 459.446 131.177C459.828 130.032 459.956 128.759 459.956 127.359V126.595C460.21 122.521 458.555 119.721 454.991 117.939ZM564.849 118.448C564.849 119.848 564.594 121.121 564.212 122.267C563.83 123.412 563.194 124.558 562.175 125.704C561.284 126.849 559.757 127.74 557.847 128.377C555.938 129.013 553.646 129.395 550.973 129.395C548.3 129.395 546.009 129.013 544.099 128.377C542.19 127.74 540.789 126.849 539.771 125.704C538.88 124.558 538.116 123.412 537.734 122.267C537.352 121.121 537.098 119.848 537.098 118.448V100.626H523.986V119.084C523.986 120.23 524.113 121.376 524.241 122.521C524.368 123.667 524.75 124.94 525.259 126.213C525.768 127.613 526.405 128.886 527.169 130.032C527.932 131.178 529.078 132.45 530.351 133.596C531.751 134.742 533.279 135.76 535.061 136.524C536.843 137.288 539.007 138.052 541.553 138.561C544.099 139.07 546.9 139.325 550.082 139.325H552.119C556.192 139.325 559.757 138.815 562.939 137.924C566.122 136.906 568.54 135.76 570.322 134.36C572.105 132.96 573.632 131.305 574.778 129.395C575.923 127.486 576.687 125.704 577.069 124.049C577.451 122.394 577.706 120.739 577.706 119.212V100.753H564.849V118.448ZM702.584 114.629C702.202 113.229 701.693 111.828 700.802 110.428C700.038 109.028 698.893 107.755 697.365 106.609C695.837 105.463 694.055 104.445 691.891 103.554C689.727 102.663 687.181 101.899 683.999 101.517C680.816 101.135 677.252 100.753 673.433 100.753H645.555V139.325H673.433C678.143 139.325 682.344 138.943 685.908 138.179C689.473 137.415 692.4 136.397 694.437 135.124C696.601 133.978 698.256 132.45 699.656 130.668C701.057 128.886 701.948 127.231 702.33 125.704C702.839 124.049 702.966 122.394 702.966 120.612V119.084C703.093 117.429 702.839 115.902 702.584 114.629ZM689.218 120.103C689.218 126.722 683.617 130.032 672.288 130.032H658.667V109.919H672.288C683.49 109.919 689.218 113.229 689.218 119.848V120.103ZM625.951 125.067L599.219 100.881H584.58V139.325H597.564V113.865L626.079 139.325H639.063V100.881H625.951V125.067ZM478.541 103.427H478.286C475.995 103.427 474.086 105.336 474.086 107.628V132.578C474.086 134.869 475.995 136.779 478.286 136.779H478.541C480.832 136.779 482.742 134.869 482.742 132.578V107.628C482.742 105.336 480.832 103.427 478.541 103.427ZM493.18 97.3164C490.889 97.3164 488.852 99.2259 488.852 101.517V138.433C488.852 140.725 490.762 142.634 493.053 142.634C495.344 142.634 497.254 140.725 497.254 138.433V101.517C497.381 99.2259 495.472 97.3164 493.18 97.3164ZM508.456 103.427C506.165 103.427 504.128 105.336 504.128 107.628V132.578C504.128 134.869 506.037 136.779 508.329 136.779C510.62 136.779 512.529 134.869 512.529 132.578V107.628C512.657 105.336 510.747 103.427 508.456 103.427Z" fill="#F3F3F3"/>
<path d="M418.966 59H409.673V86.3689H439.715V79.6222H418.966V59ZM442.261 86.2416H451.172V66.5105H442.261V86.2416ZM459.192 64.0919V66.3832H455.118V71.857H459.192V86.1143H467.975V71.857H473.195V66.3832H467.975V65.3649C467.975 64.7284 468.103 64.3465 468.357 64.0919C468.612 63.8373 468.994 63.71 469.758 63.71H473.195V59H466.702C461.738 59 459.192 60.6549 459.192 64.0919ZM442.261 64.6011H451.172V59H442.261V64.6011ZM509.474 76.3124C509.474 69.1838 504.51 65.6195 494.581 65.6195H492.162C489.361 65.6195 486.943 65.8741 484.906 66.3832C482.869 66.8924 481.342 67.6562 480.323 68.6746C479.305 69.693 478.414 70.7114 478.032 71.857C477.523 73.0027 477.268 74.2757 477.268 75.5486V76.3124C477.268 77.7127 477.523 78.9857 478.032 80.1314C478.541 81.277 479.432 82.2954 480.451 83.3138C481.596 84.3322 483.124 85.0959 485.161 85.6051C487.197 86.1143 489.616 86.3689 492.417 86.3689H494.708C497.127 86.3689 499.291 86.2416 501.2 85.8597C503.11 85.4778 504.51 85.0959 505.528 84.5868C506.547 84.0776 507.31 83.4411 507.947 82.6773C508.583 81.9135 508.965 81.277 509.22 80.7678C509.347 80.1314 509.474 79.6222 509.474 78.9857H500.691C500.691 79.113 500.564 79.2403 500.436 79.4949C500.309 79.6222 500.182 79.8768 499.8 80.1314C499.545 80.3859 499.163 80.6405 498.654 80.7678C498.145 81.0224 497.508 81.1497 496.617 81.277C495.726 81.4043 494.708 81.5316 493.69 81.5316C489.234 81.5316 486.688 80.2586 486.052 77.7127H509.602V76.3124H509.474ZM486.052 73.6392C486.815 71.4751 489.107 70.3295 493.18 70.3295C497.381 70.3295 499.8 71.4751 500.436 73.6392H486.052Z" fill="#F3F3F3"/>
</g>
<defs>
<linearGradient id="paint0_linear_353_4499" x1="-7.7188e-07" y1="114.467" x2="511.693" y2="313.395" gradientUnits="userSpaceOnUse">
<stop stop-color="#6F44D8"/>
<stop offset="1" stop-color="#0096EB"/>
</linearGradient>
<clipPath id="clip0_353_4499">
<rect width="1110" height="202" fill="white"/>
</clipPath>
</defs>
</svg>
