<svg width="1110" height="202" viewBox="0 0 1110 202" fill="none" xmlns="http://www.w3.org/2000/svg">
<g clip-path="url(#clip0_353_4871)">
<rect width="1110" height="202" fill="#191919"/>
<mask id="mask0_353_4871" style="mask-type:luminance" maskUnits="userSpaceOnUse" x="-36" y="105" width="156" height="156">
<path d="M42.0001 260.945C85.0479 260.945 119.945 226.048 119.945 183C119.945 139.952 85.0479 105.055 42.0001 105.055C-1.04778 105.055 -35.9449 139.952 -35.9449 183C-35.9449 226.048 -1.04778 260.945 42.0001 260.945Z" fill="white"/>
</mask>
<g mask="url(#mask0_353_4871)">
<path d="M-48.3265 214.762C-45.4649 211.277 -42.5465 206.262 -38.0982 204.618C-33.1682 202.777 -31.0999 205.78 -28.4365 209.378C-27.1615 211.135 -25.4332 212.467 -23.7615 213.345C-17.1315 216.802 -10.6715 212.552 -5.00487 208.783C-1.00987 206.148 3.58013 204.137 8.25513 203.428C16.1035 202.21 22.6768 206.12 26.5018 213.402C28.1451 216.518 29.8168 220.258 31.8568 223.403C35.5685 229.183 39.8751 232.385 46.7318 230.77C47.6385 230.572 48.5451 230.232 49.5368 229.835C55.7418 227.37 59.4535 221.477 63.1651 216.972C65.0068 214.733 66.4801 212.863 67.7551 211.532C70.5318 208.642 71.8351 206.007 74.7535 203.995C75.9718 203.145 77.8135 202.153 79.9668 201.842C84.1601 201.218 88.8351 201.728 92.3485 205.695C94.6718 208.33 96.2301 211.758 100.82 212.268C101.302 212.325 101.812 212.353 102.378 212.382C106.317 212.495 109.122 210.568 112.012 209.577C117.282 207.792 124.903 209.548 129.862 210.54" stroke="#F3F3F3" stroke-width="2" stroke-miterlimit="10"/>
<path d="M-48.2982 207.792C-45.4932 204.335 -42.6316 199.348 -38.2682 197.677C-33.3382 195.778 -31.3832 198.725 -28.7199 202.352C-27.4449 204.108 -25.6599 205.412 -23.9599 206.233C-17.3299 209.435 -10.9832 205.185 -5.42988 201.388C-1.49155 198.697 2.98512 196.628 7.60345 195.835C15.4234 194.475 21.9118 198.413 25.8218 205.468C27.5218 208.528 29.3068 212.155 31.4035 215.158C35.2851 220.655 39.6768 223.318 46.3351 221.533C47.2134 221.307 48.1201 220.938 49.0835 220.513C55.1468 217.935 58.8868 212.155 62.7684 207.933C64.6951 205.837 66.2251 204.165 67.5568 203.003C70.3901 200.482 71.7501 198.3 74.6118 196.742C75.8301 196.09 77.6435 194.9 79.7401 195.127C83.9051 195.552 88.4951 195.41 92.0368 199.093C94.4168 201.558 96.0884 204.647 100.678 204.987C101.16 205.015 101.67 205.043 102.237 205.043C106.147 205.1 108.952 203.4 111.842 202.607C117.112 201.162 124.563 203.06 129.522 203.627" stroke="#6F44D8" stroke-width="2" stroke-miterlimit="10"/>
<path d="M-48.2416 200.822C-45.4932 197.365 -42.6882 192.463 -38.3816 190.735C-33.4516 188.752 -31.5816 191.698 -28.9466 195.325C-27.6716 197.11 -25.8582 198.357 -24.1016 199.122C-17.4716 202.04 -11.2666 197.818 -5.79825 193.965C-1.91658 191.245 2.44675 189.092 7.00842 188.213C14.7717 186.683 21.1751 190.65 25.2267 197.535C27.0117 200.538 28.8534 204.08 31.0634 206.913C35.1151 212.127 39.5917 214.252 46.0517 212.268C46.9017 212.013 47.8084 211.617 48.7434 211.192C54.6651 208.5 58.4617 202.833 62.4851 198.867C64.4684 196.912 66.0834 195.41 67.4434 194.418C70.3617 192.293 71.7501 190.537 74.5551 189.432C75.7734 188.95 77.5584 187.958 79.5701 188.327C83.6784 189.092 88.2117 189.007 91.7817 192.378C94.2184 194.673 96.0317 197.393 100.593 197.62C101.075 197.648 101.585 197.648 102.123 197.648C105.977 197.677 108.782 196.203 111.672 195.58C116.913 194.475 124.223 196.543 129.182 196.628" stroke="#F3F3F3" stroke-width="2" stroke-miterlimit="10"/>
<path d="M-48.1849 193.852C-45.4933 190.395 -42.7449 185.55 -38.5233 183.793C-33.5933 181.725 -31.8366 184.643 -29.1733 188.298C-27.8983 190.083 -26.0283 191.302 -24.2433 192.01C-17.6133 194.673 -11.5499 190.452 -6.13827 186.57C-2.3416 183.822 1.96506 181.612 6.44173 180.62C14.1767 178.948 20.4667 182.943 24.6317 189.602C26.4734 192.577 28.4284 195.977 30.7234 198.668C34.9451 203.598 39.4784 205.185 45.7401 203.032C46.5901 202.748 47.4684 202.323 48.3751 201.898C54.1551 199.093 57.9801 193.54 62.1734 189.857C64.2417 188.015 65.9134 186.74 67.3017 185.89C70.2767 184.162 71.7217 182.858 74.4984 182.178C75.7167 181.895 77.5017 181.073 79.4001 181.583C83.4234 182.688 87.9284 182.688 91.5267 185.72C94.0201 187.845 95.9751 190.225 100.48 190.282C100.962 190.282 101.472 190.282 102.01 190.282C105.807 190.253 108.64 189.007 111.53 188.582C116.772 187.788 123.912 190.055 128.842 189.687" stroke="#6F44D8" stroke-width="2" stroke-miterlimit="10"/>
<path d="M-48.1566 186.882C-45.5216 183.453 -42.83 178.665 -38.665 176.852C-33.735 174.727 -32.0633 177.617 -29.4283 181.272C-28.1533 183.057 -26.255 184.247 -24.4416 184.898C-17.8116 187.335 -11.89 183.113 -6.56329 179.147C-2.82329 176.37 1.37004 174.075 5.81838 172.998C13.525 171.157 19.73 175.208 24.0084 181.64C25.935 184.558 27.975 187.873 30.355 190.395C34.7184 195.042 39.365 196.09 45.4284 193.767C46.25 193.455 47.1 193.03 48.0067 192.548C53.6734 189.63 57.5267 184.162 61.8617 180.762C64.015 179.062 65.715 177.957 67.1884 177.305C70.22 175.945 71.7217 175.095 74.4417 174.868C75.66 174.755 77.3317 174.528 79.2584 174.812C83.4234 175.407 87.6734 176.313 91.3 179.062C93.85 180.988 95.9467 183.028 100.423 182.972C100.905 182.972 101.387 182.943 101.925 182.943C105.665 182.858 108.498 181.838 111.417 181.612C116.63 181.158 123.628 183.567 128.558 182.745" stroke="#F3F3F3" stroke-width="2" stroke-miterlimit="10"/>
<path d="M-48.0999 179.912C-45.5215 176.483 -42.8865 171.752 -38.8065 169.91C-33.8765 167.7 -32.2899 170.562 -29.6832 174.245C-28.4082 176.058 -26.4532 177.192 -24.6115 177.787C-17.9815 179.968 -12.1732 175.747 -6.95985 171.723C-3.27652 168.89 0.803481 166.51 5.19515 165.377C12.8451 163.393 18.9651 167.445 23.3568 173.707C25.3685 176.568 27.4651 179.77 29.9585 182.15C34.4918 186.542 39.2235 187.023 45.0885 184.53C45.9101 184.19 46.7318 183.737 47.6101 183.255C53.1351 180.223 57.0451 174.868 61.5218 171.752C63.7601 170.193 65.5168 169.258 67.0185 168.777C70.0785 167.813 71.6935 167.417 74.3285 167.615C75.5468 167.7 77.1901 167.672 79.0318 168.068C83.1968 169.003 87.3335 169.967 90.9601 172.403C93.5668 174.16 95.7768 175.832 100.253 175.633C100.735 175.605 101.217 175.605 101.755 175.577C105.467 175.463 108.3 174.67 111.19 174.613C116.403 174.5 123.232 177.078 128.162 175.803" stroke="#6F44D8" stroke-width="2" stroke-miterlimit="10"/>
<path d="M-48.0432 172.942C-45.5215 169.542 -42.9432 164.867 -38.9199 162.997C-33.9899 160.702 -32.5165 163.563 -29.8815 167.247C-28.6065 169.06 -26.6232 170.165 -24.7249 170.703C-18.0949 172.63 -12.4282 168.408 -7.29988 164.357C-3.67322 161.495 0.321784 159.03 4.62845 157.812C12.2501 155.658 18.2851 159.767 22.7618 165.802C24.8584 168.607 27.0401 171.723 29.5901 173.933C34.2934 178.042 39.0818 177.985 44.7768 175.293C45.5701 174.925 46.3918 174.443 47.2418 173.933C52.6251 170.788 56.5634 165.547 61.2101 162.685C63.5334 161.268 65.3468 160.503 66.8768 160.22C69.9934 159.625 71.6934 159.738 74.2718 160.333C75.4901 160.617 77.0768 160.787 78.8618 161.325C83.0268 162.572 87.0784 163.62 90.7051 165.745C93.3968 167.332 95.7201 168.663 100.168 168.323C100.65 168.295 101.132 168.267 101.642 168.238C105.297 168.068 108.158 167.502 111.048 167.615C116.262 167.813 122.92 170.59 127.822 168.862" stroke="#F3F3F3" stroke-width="2" stroke-miterlimit="10"/>
<path d="M-47.9866 166C-45.5216 162.6 -42.9999 157.982 -39.0616 156.083C-34.1316 153.703 -32.7432 156.537 -30.1366 160.248C-28.8616 162.062 -26.8216 163.138 -24.8949 163.62C-18.2649 165.32 -12.7399 161.098 -7.69657 156.962C-4.15491 154.072 -0.244906 151.522 4.00509 150.247C11.5984 147.923 17.5484 152.06 22.1384 157.925C24.2918 160.673 26.5868 163.677 29.2218 165.745C34.0951 169.57 38.9684 168.975 44.4651 166.113C45.2584 165.717 46.0234 165.207 46.8734 164.697C52.1151 161.438 56.1101 156.31 60.8984 153.732C63.3068 152.428 65.1484 151.862 66.7634 151.748C69.9368 151.522 71.6934 152.117 74.2151 153.137C75.4334 153.618 76.9918 153.987 78.7201 154.638C82.8851 156.253 86.8518 157.302 90.4784 159.172C93.2268 160.588 95.6918 161.552 100.083 161.07C100.565 161.013 101.047 160.985 101.557 160.957C105.155 160.758 108.017 160.418 110.935 160.702C116.12 161.24 122.637 164.158 127.538 161.977" stroke="#6F44D8" stroke-width="2" stroke-miterlimit="10"/>
<path d="M-47.9583 159.03C-45.5499 155.63 -43.0849 151.068 -39.2316 149.142C-34.3016 146.677 -33.0266 149.482 -30.4199 153.222C-29.1449 155.063 -27.0483 156.083 -25.0933 156.508C-18.4916 157.982 -13.0799 153.732 -8.12158 149.538C-4.63658 146.592 -0.839917 143.985 3.35342 142.625C10.8901 140.16 16.7834 144.325 21.4584 149.963C23.6967 152.655 26.0767 155.573 28.7967 157.472C33.8401 161.013 38.7701 159.852 44.0967 156.848C44.8617 156.423 45.6268 155.885 46.4484 155.347C51.5484 151.975 55.6001 146.96 60.5301 144.665C62.9951 143.503 64.9218 143.248 66.5651 143.192C69.7951 143.05 71.6084 144.438 74.0734 145.855C75.2634 146.535 76.7934 147.102 78.4651 147.895C82.6018 149.85 86.4834 150.955 90.1384 152.513C92.9717 153.732 95.5501 154.383 99.9134 153.76C100.367 153.703 100.877 153.647 101.358 153.618C104.9 153.363 107.79 153.25 110.68 153.732C115.865 154.61 122.212 157.698 127.085 155.063" stroke="#F3F3F3" stroke-width="2" stroke-miterlimit="10"/>
<path d="M-47.9016 152.06C-45.5499 148.66 -43.1416 144.155 -39.3449 142.2C-34.4433 139.65 -33.2249 142.455 -30.6183 146.195C-29.3433 148.037 -27.2183 149.028 -25.2066 149.425C-18.6049 150.672 -13.3066 146.393 -8.43328 142.172C-5.00494 139.197 -1.29328 136.505 2.84339 135.06C10.3517 132.425 16.1601 136.618 20.9484 142.058C23.2717 144.722 25.7084 147.498 28.5417 149.255C33.7551 152.513 38.7701 150.813 43.8984 147.64C44.6351 147.187 45.4 146.648 46.1934 146.082C51.18 142.597 55.2317 137.667 60.3317 135.655C62.8817 134.635 64.8651 134.408 66.5367 134.663C69.8234 135.145 71.6934 136.788 74.13 138.602C75.32 139.48 76.7934 140.245 78.4367 141.152C82.5451 143.475 86.3701 144.58 90.0251 145.883C92.9434 146.903 95.6067 147.215 99.9701 146.45C100.423 146.365 100.905 146.308 101.415 146.28C104.928 145.997 107.79 146.082 110.708 146.762C115.893 147.952 122.07 151.238 126.943 148.15" stroke="#6F44D8" stroke-width="2" stroke-miterlimit="10"/>
<path d="M-47.8448 145.09C-45.5498 141.718 -43.1982 137.27 -39.4865 135.258C-34.5848 132.623 -33.4798 135.4 -30.8732 139.168C-29.5982 141.01 -27.4165 142.002 -25.3765 142.313C-18.7748 143.333 -13.6182 139.055 -8.82985 134.748C-5.45818 131.745 -1.85985 128.968 2.22015 127.438C9.70015 124.633 15.4235 128.855 20.2968 134.125C22.7052 136.732 25.2268 139.423 28.1452 141.038C33.5002 144.013 38.6002 141.747 43.5585 138.432C44.2952 137.95 45.0035 137.383 45.7968 136.817C50.6418 133.218 54.7502 128.402 59.9918 126.673C62.6268 125.795 64.6668 125.738 66.3952 126.163C69.7385 127.013 71.6652 129.167 74.0452 131.377C75.2352 132.482 76.6518 133.417 78.2385 134.465C82.3185 137.128 86.0868 138.262 89.7418 139.282C92.7168 140.103 95.5218 140.075 99.8285 139.197C100.282 139.112 100.763 139.027 101.245 138.97C104.702 138.63 107.592 138.97 110.51 139.82C115.667 141.35 121.702 144.778 126.575 141.237" stroke="#F3F3F3" stroke-width="2" stroke-miterlimit="10"/>
<path d="M-47.7882 138.12C-45.5499 134.748 -43.2832 130.357 -39.6282 128.317C-34.7265 125.597 -33.7065 128.373 -31.1282 132.142C-29.8532 134.012 -27.6432 134.947 -25.5749 135.202C-18.9732 135.995 -13.9582 131.688 -9.25487 127.353C-5.93987 124.293 -2.45487 121.46 1.56846 119.845C8.9918 116.87 14.6585 121.12 19.6168 126.192C22.1101 128.713 24.7168 131.32 27.6918 132.793C33.2168 135.485 38.3735 132.68 43.1618 129.167C43.8701 128.657 44.5785 128.062 45.3435 127.467C50.0468 123.755 54.2118 119.052 59.5951 117.578C62.3151 116.842 64.4118 116.955 66.1685 117.578C69.5685 118.768 71.5235 121.432 73.9035 124.067C75.0651 125.37 76.4535 126.503 77.9835 127.665C82.0068 130.697 85.7468 131.83 89.4018 132.567C92.4618 133.19 95.3801 132.85 99.6585 131.802C100.112 131.688 100.593 131.603 101.075 131.547C104.475 131.178 107.393 131.717 110.283 132.765C115.44 134.607 121.305 138.233 126.15 134.238" stroke="#6F44D8" stroke-width="2" stroke-miterlimit="10"/>
<path d="M-47.7599 131.15C-45.5499 127.807 -43.3399 123.443 -39.7416 121.403C-34.8399 118.598 -33.9332 121.347 -31.3266 125.143C-30.0516 127.013 -27.7849 127.92 -25.6882 128.118C-19.0866 128.685 -14.1849 124.35 -9.59489 119.958C-6.36489 116.87 -2.96489 113.952 1.00178 112.252C8.39678 109.107 13.9784 113.385 19.0501 118.287C21.6284 120.752 24.3201 123.273 27.3801 124.577C33.0751 126.985 38.2884 123.613 42.9068 119.958C43.5868 119.42 44.2951 118.797 45.0318 118.202C49.5934 114.377 53.7868 109.787 59.3401 108.597C62.1451 108.002 64.2984 108.257 66.1118 109.078C69.5684 110.637 71.5518 113.81 73.9034 116.842C75.0651 118.343 76.3968 119.703 77.8984 120.978C81.8651 124.378 85.5768 125.512 89.2318 125.993C92.3768 126.418 95.3801 125.738 99.6584 124.577C100.112 124.463 100.593 124.35 101.047 124.293C104.39 123.868 107.308 124.633 110.227 125.88C115.383 128.062 121.078 131.858 125.923 127.382" stroke="#F3F3F3" stroke-width="2" stroke-miterlimit="10"/>
<path d="M-47.7032 124.18C-45.5782 120.837 -43.4249 116.53 -39.8832 114.462C-35.0099 111.572 -34.1599 114.32 -31.5816 118.117C-30.3066 119.987 -28.0116 120.893 -25.8582 121.007C-19.2566 121.375 -14.4966 116.983 -9.99158 112.535C-6.81825 109.418 -3.50324 106.387 0.378423 104.63C7.71676 101.315 13.2418 105.622 18.3984 110.325C21.0618 112.733 23.8101 115.142 26.9834 116.303C32.8484 118.428 38.1184 114.49 42.5384 110.693C43.2184 110.127 43.8984 109.475 44.5784 108.852C48.9984 104.913 53.2484 100.437 58.9434 99.5017C61.8334 99.0483 64.0434 99.4733 65.8851 100.493C69.4268 102.42 71.4384 106.075 73.7334 109.532C74.8668 111.232 76.1701 112.79 77.6151 114.178C81.5251 117.947 85.1801 119.052 88.8634 119.278C92.0651 119.477 95.2101 118.485 99.4601 117.182C99.9134 117.04 100.367 116.927 100.848 116.87C104.135 116.388 107.082 117.408 110 118.825C115.128 121.318 120.682 125.285 125.527 120.383" stroke="#6F44D8" stroke-width="2" stroke-miterlimit="10"/>
<path d="M-47.6466 117.21C-45.5783 113.895 -43.4816 109.617 -40.0249 107.52C-35.1516 104.545 -34.3866 107.265 -31.8083 111.09C-30.5333 112.988 -28.1816 113.838 -25.9999 113.895C-19.3983 114.037 -14.7799 109.645 -10.3599 105.14C-7.24327 101.967 -4.0416 98.8783 -0.188268 97.0366C7.12173 93.5516 12.5617 97.8866 17.8034 102.42C20.5517 104.772 23.3851 107.095 26.6434 108.087C32.6784 109.928 38.0051 105.423 42.2551 101.485C42.9067 100.862 43.5584 100.238 44.2384 99.5866C48.5451 95.535 52.7951 91.1716 58.6601 90.52C61.6067 90.2083 63.9017 90.8033 65.7717 91.9933C69.3701 94.26 71.4101 98.425 73.7051 102.307C74.8101 104.205 76.0567 105.962 77.5017 107.492C81.3551 111.628 84.9817 112.96 88.6651 112.677C91.9234 112.422 95.2101 111.373 99.4034 109.928C99.8567 109.758 100.31 109.673 100.763 109.588C104.022 109.078 106.968 110.297 109.858 111.883C114.987 114.717 120.342 118.853 125.187 113.498" stroke="#F3F3F3" stroke-width="2" stroke-miterlimit="10"/>
<path d="M-47.59 110.24C-45.5783 106.953 -43.5666 102.732 -40.1666 100.607C-35.2933 97.5467 -34.6416 100.238 -32.0633 104.092C-30.7883 105.99 -28.4083 106.783 -26.17 106.812C-19.5683 106.925 -15.0916 102.307 -10.7566 97.745C-7.69663 94.5433 -4.6083 91.37 -0.811635 89.4717C6.4417 85.8167 11.825 90.18 17.18 94.515C20.0134 96.81 22.9317 99.02 26.275 99.87C32.48 101.428 37.8634 96.385 41.9434 92.2483C42.5667 91.5967 43.2184 90.945 43.87 90.265C48.035 86.1 52.3417 81.85 58.3484 81.4817C61.38 81.2833 63.7317 82.0767 65.6584 83.465C69.3417 86.1 71.3817 90.775 73.6484 95.0533C74.7534 97.15 75.9434 99.105 77.3317 100.748C81.1 105.253 84.6984 106.302 88.41 106.047C91.7534 105.792 95.125 104.205 99.3184 102.647C99.7717 102.477 100.225 102.363 100.678 102.278C103.88 101.712 106.855 103.157 109.745 104.942C114.873 108.087 120.058 112.422 124.903 106.585" stroke="#6F44D8" stroke-width="2" stroke-miterlimit="10"/>
</g>
<mask id="mask1_353_4871" style="mask-type:luminance" maskUnits="userSpaceOnUse" x="994" y="-52" width="156" height="156">
<path d="M1072 103.945C1115.05 103.945 1149.94 69.0479 1149.94 26C1149.94 -17.0478 1115.05 -51.945 1072 -51.945C1028.95 -51.945 994.055 -17.0478 994.055 26C994.055 69.0479 1028.95 103.945 1072 103.945Z" fill="white"/>
</mask>
<g mask="url(#mask1_353_4871)">
<path d="M981.22 120.463C984.592 116.893 987.992 111.255 993.12 110.008C1000.43 108.223 1003.32 116.213 1007.65 120.237C1014.06 126.187 1021.96 121.653 1028.42 118.395C1040.15 112.473 1057.75 112.7 1062.05 127.717C1065.17 138.568 1066.53 159.705 1082.88 156.56C1093.96 154.407 1096.03 140.24 1098.94 131.372C1101.04 125.053 1102.15 118.31 1105.32 112.36C1109.14 105.22 1119.85 97.995 1124.61 108.507C1126.71 113.153 1126.8 120.69 1133.31 121.427C1137.7 121.937 1140.4 117.942 1143.29 115.335C1148.61 110.518 1157.74 110.773 1162.78 115.873" stroke="#6F44D8" stroke-width="2" stroke-miterlimit="10"/>
<path d="M981.277 113.493C984.592 109.923 987.935 104.37 992.978 103.067C997.937 101.792 1000.74 105.022 1003.46 108.507C1004.76 110.178 1006.07 111.85 1007.48 113.125C1013.92 118.792 1021.65 114.287 1028.03 110.972C1032.53 108.62 1037.89 107.175 1043.04 107.175C1051.17 107.118 1058.65 110.83 1061.43 119.783C1062.51 123.297 1063.44 127.858 1064.77 132.278C1067.18 140.297 1070.87 147.692 1079.22 147.635C1080.24 147.635 1081.35 147.493 1082.51 147.238C1089.79 145.68 1093.22 138.965 1095.69 132.193C1096.9 128.878 1097.84 125.535 1098.83 122.815C1100.98 116.865 1102.15 110.603 1105.29 105.078C1106.65 102.727 1108.83 100.347 1111.33 98.7317C1115.83 95.8417 1121.27 95.3883 1124.39 101.82C1126.34 105.843 1126.74 112.077 1131.58 113.692C1132.09 113.862 1132.63 113.975 1133.26 114.032C1137.59 114.485 1140.28 110.745 1143.2 108.308C1148.53 103.832 1157.48 104.257 1162.5 108.903" stroke="#6F44D8" stroke-width="2" stroke-miterlimit="10"/>
<path d="M981.305 106.523C984.563 102.982 987.85 97.485 992.837 96.125C997.795 94.765 1000.51 97.9667 1003.21 101.48C1004.51 103.18 1005.87 104.795 1007.31 106.013C1013.8 111.397 1021.34 106.92 1027.63 103.577C1032.08 101.197 1037.32 99.695 1042.42 99.5817C1050.52 99.4117 1057.86 103.095 1060.78 111.85C1061.94 115.307 1062.96 119.783 1064.38 124.033C1066.96 131.768 1070.72 138.653 1078.86 138.398C1079.88 138.37 1080.92 138.2 1082.09 137.945C1089.23 136.273 1092.68 129.643 1095.32 123.183C1096.62 120.01 1097.61 116.865 1098.66 114.287C1100.9 108.705 1102.06 102.897 1105.18 97.825C1106.51 95.6717 1108.66 93.4333 1111.13 92.0167C1115.58 89.41 1120.93 89.07 1124.1 95.2183C1126.09 99.0716 1126.65 104.965 1131.44 106.438C1131.95 106.58 1132.49 106.693 1133.09 106.75C1137.39 107.147 1140.08 103.633 1142.97 101.395C1148.27 97.2583 1157.06 97.8533 1162.1 102.018" stroke="#6F44D8" stroke-width="2" stroke-miterlimit="10"/>
<path d="M981.362 99.5533C984.563 96.0117 987.793 90.6 992.695 89.1833C997.625 87.7667 1000.26 90.94 1002.95 94.4533C1004.25 96.1533 1005.67 97.74 1007.14 98.9017C1013.66 104.002 1021.06 99.5817 1027.23 96.1533C1031.62 93.745 1036.78 92.1583 1041.8 91.96C1049.87 91.6483 1057.1 95.36 1060.16 103.888C1061.37 107.288 1062.51 111.652 1064.01 115.76C1066.76 123.212 1070.58 129.587 1078.54 129.105C1079.54 129.048 1080.58 128.878 1081.72 128.595C1088.74 126.81 1092.23 120.293 1095.01 114.117C1096.37 111.057 1097.44 108.11 1098.52 105.73C1100.84 100.545 1102 95.19 1105.09 90.5433C1106.42 88.56 1108.49 86.52 1110.93 85.245C1115.32 82.9217 1120.59 82.695 1123.82 88.5317C1125.86 92.215 1126.54 97.74 1131.33 99.0717C1131.84 99.2134 1132.38 99.2984 1132.97 99.355C1137.22 99.7234 1139.94 96.4367 1142.83 94.3683C1148.13 90.5717 1156.74 91.3367 1161.79 95.0483" stroke="#F3F3F3" stroke-width="2" stroke-miterlimit="10"/>
<path d="M981.418 92.5833C984.563 89.0416 987.737 83.715 992.553 82.27C997.483 80.7967 1000.03 83.9133 1002.72 87.455C1004.03 89.155 1005.47 90.7133 1007 91.8183C1013.55 96.635 1020.77 92.2433 1026.86 88.7866C1031.17 86.3216 1036.24 84.6783 1041.23 84.395C1049.25 83.9133 1056.39 87.6816 1059.56 96.0116C1060.84 99.3833 1062.08 103.633 1063.67 107.572C1066.59 114.74 1070.47 120.605 1078.26 119.925C1079.22 119.84 1080.27 119.642 1081.38 119.33C1088.26 117.432 1091.78 111.028 1094.72 105.107C1096.17 102.188 1097.3 99.4116 1098.41 97.2016C1100.81 92.385 1102 87.5117 1105.06 83.29C1106.37 81.505 1108.41 79.635 1110.79 78.53C1115.15 76.49 1120.31 76.3766 1123.59 81.9016C1125.66 85.3866 1126.51 90.6 1131.27 91.79C1131.78 91.9033 1132.32 92.0166 1132.89 92.045C1137.08 92.3566 1139.83 89.2966 1142.72 87.4266C1148.02 83.97 1156.46 84.8767 1161.48 88.1633" stroke="#6F44D8" stroke-width="2" stroke-miterlimit="10"/>
<path d="M981.475 85.6133C984.563 82.1 987.708 76.8017 992.44 75.3283C997.37 73.77 999.807 76.8867 1002.5 80.4283C1003.8 82.1567 1005.3 83.63 1006.86 84.7067C1013.43 89.24 1020.49 84.8767 1026.5 81.3633C1030.75 78.87 1035.7 77.17 1040.63 76.7733C1048.62 76.15 1055.62 79.9467 1058.97 88.05C1060.33 91.365 1061.63 95.5017 1063.3 99.2983C1066.39 106.183 1070.36 111.51 1077.95 110.66C1078.91 110.547 1079.93 110.32 1081.01 110.008C1087.75 107.997 1091.32 101.678 1094.41 96.0683C1095.94 93.2917 1097.13 90.685 1098.29 88.645C1100.79 84.1967 1101.98 79.7767 1105.01 76.0083C1106.28 74.4217 1108.29 72.7217 1110.65 71.7583C1114.95 70.0017 1120.02 70.03 1123.37 75.2433C1125.49 78.5583 1126.48 83.4033 1131.19 84.4517C1131.67 84.565 1132.21 84.65 1132.8 84.6783C1136.94 84.9617 1139.69 82.1283 1142.58 80.4283C1147.88 77.3117 1156.15 78.3883 1161.16 81.1933" stroke="#F3F3F3" stroke-width="2" stroke-miterlimit="10"/>
<path d="M981.503 78.6434C984.535 75.13 987.623 69.9167 992.27 68.3867C997.2 66.7717 999.552 69.8317 1002.24 73.4017C1003.55 75.13 1005.11 76.575 1006.66 77.595C1013.27 81.8734 1020.15 77.5384 1026.1 73.94C1030.29 71.4184 1035.17 69.6334 1040.01 69.1517C1047.97 68.3867 1054.86 72.2117 1058.32 80.1167C1059.73 83.375 1061.15 87.4267 1062.91 91.0533C1066.14 97.655 1070.22 102.472 1077.61 101.423C1078.55 101.282 1079.54 101.027 1080.61 100.687C1087.22 98.5617 1090.81 92.3567 1094.07 87.0017C1095.69 84.3667 1096.96 81.9584 1098.12 80.0884C1100.67 76.0367 1101.89 72.07 1104.92 68.7267C1106.2 67.31 1108.15 65.78 1110.45 65.015C1114.73 63.5417 1119.69 63.6833 1123.09 68.585C1125.27 71.73 1126.37 76.235 1131.08 77.1417C1131.56 77.2267 1132.1 77.3117 1132.66 77.34C1136.77 77.5667 1139.52 74.96 1142.41 73.43C1147.71 70.6534 1155.81 71.9 1160.83 74.2517" stroke="#6F44D8" stroke-width="2" stroke-miterlimit="10"/>
<path d="M981.56 71.6733C984.535 68.16 987.567 63.0317 992.157 61.445C997.087 59.745 999.353 62.805 1002.02 66.375C1003.29 68.1033 1004.94 69.52 1006.52 70.4833C1013.12 74.4783 1019.9 70.1717 1025.73 66.545C1029.87 63.9667 1034.63 62.125 1039.42 61.5867C1047.32 60.68 1054.12 64.505 1057.69 72.2117C1059.19 75.4133 1060.67 79.3517 1062.54 82.8367C1065.94 89.1833 1070.07 93.4333 1077.3 92.1866C1078.23 92.0166 1079.2 91.7333 1080.25 91.3933C1086.71 89.155 1090.36 83.0633 1093.76 77.9917C1095.43 75.47 1096.79 73.26 1097.98 71.56C1100.62 67.8767 1101.86 64.3633 1104.84 61.4733C1106.09 60.255 1108.01 58.895 1110.25 58.2717C1114.5 57.0817 1119.37 57.3367 1122.8 61.9267C1125.01 64.9017 1126.29 69.0383 1130.96 69.8033C1131.44 69.8883 1131.98 69.945 1132.55 69.9733C1136.6 70.1717 1139.38 67.7917 1142.27 66.4317C1147.57 63.9667 1155.5 65.3833 1160.49 67.31" stroke="#F3F3F3" stroke-width="2" stroke-miterlimit="10"/>
<path d="M981.617 64.7317C984.535 61.2467 987.51 56.1467 992.015 54.5317C996.945 52.775 999.098 55.7783 1001.76 59.3767C1003.04 61.1333 1004.71 62.4933 1006.35 63.4C1012.98 67.1117 1019.58 62.8333 1025.34 59.15C1029.39 56.5433 1034.06 54.6167 1038.79 53.9933C1046.67 52.9167 1053.36 56.7983 1057.07 64.2783C1058.63 67.4517 1060.21 71.2767 1062.17 74.5917C1065.74 80.655 1069.96 84.395 1076.99 82.95C1077.89 82.7517 1078.86 82.4683 1079.88 82.0717C1086.22 79.72 1089.88 73.7417 1093.45 68.925C1095.21 66.545 1096.62 64.505 1097.87 63.0033C1100.56 59.7167 1101.84 56.6567 1104.78 54.1917C1106.03 53.1433 1107.9 51.9817 1110.11 51.5283C1114.33 50.6217 1119.09 50.99 1122.58 55.2967C1124.84 58.1017 1126.26 61.8983 1130.91 62.5217C1131.39 62.5783 1131.93 62.635 1132.49 62.6633C1136.49 62.805 1139.26 60.6517 1142.15 59.49C1147.42 57.365 1155.22 58.9517 1160.2 60.3967" stroke="#6F44D8" stroke-width="2" stroke-miterlimit="10"/>
<path d="M981.673 57.7617C984.535 54.2767 987.453 49.2617 991.902 47.6183C996.832 45.7767 998.9 48.78 1001.56 52.3783C1002.84 54.135 1004.57 55.4667 1006.24 56.345C1012.87 59.8017 1019.33 55.5517 1025 51.7833C1028.99 49.1483 1033.58 47.1367 1038.26 46.4283C1046.1 45.21 1052.68 49.12 1056.5 56.4017C1058.15 59.5183 1059.82 63.2583 1061.86 66.4033C1065.57 72.1833 1069.88 75.385 1076.73 73.77C1077.64 73.5717 1078.55 73.2317 1079.54 72.835C1085.74 70.37 1089.45 64.4767 1093.17 59.9717C1095.01 57.7333 1096.48 55.8633 1097.76 54.5317C1100.53 51.6417 1101.84 49.0067 1104.75 46.995C1105.97 46.145 1107.81 45.1533 1109.97 44.8417C1114.16 44.2183 1118.84 44.7283 1122.35 48.695C1124.67 51.33 1126.23 54.7583 1130.82 55.2683C1131.3 55.325 1131.81 55.3533 1132.38 55.3817C1136.32 55.495 1139.12 53.5683 1142.01 52.5767C1147.28 50.7917 1154.9 52.5483 1159.86 53.54" stroke="#F3F3F3" stroke-width="2" stroke-miterlimit="10"/>
<path d="M981.702 50.7917C984.507 47.335 987.368 42.3483 991.732 40.6767C996.662 38.7783 998.617 41.725 1001.28 45.3517C1002.55 47.1083 1004.34 48.4117 1006.04 49.2333C1012.67 52.435 1019.02 48.185 1024.57 44.3883C1028.51 41.6967 1032.98 39.6283 1037.6 38.835C1045.42 37.475 1051.91 41.4133 1055.82 48.4683C1057.52 51.5283 1059.31 55.155 1061.4 58.1583C1065.28 63.655 1069.68 66.3183 1076.33 64.5333C1077.21 64.3067 1078.12 63.9383 1079.08 63.5133C1085.15 60.935 1088.89 55.155 1092.77 50.9333C1094.69 48.8367 1096.22 47.165 1097.56 46.0033C1100.39 43.4817 1101.75 41.3 1104.61 39.7417C1105.83 39.09 1107.64 37.9 1109.74 38.1267C1113.9 38.5517 1118.49 38.41 1122.04 42.0933C1124.42 44.5583 1126.09 47.6467 1130.68 47.9867C1131.16 48.015 1131.67 48.0433 1132.24 48.0433C1136.15 48.1 1138.95 46.4 1141.84 45.6067C1147.11 44.1617 1154.56 46.06 1159.52 46.6267" stroke="#6F44D8" stroke-width="2" stroke-miterlimit="10"/>
<path d="M981.758 43.8217C984.507 40.365 987.312 35.4633 991.618 33.735C996.548 31.7517 998.418 34.6983 1001.05 38.325C1002.33 40.11 1004.14 41.3567 1005.9 42.1217C1012.53 45.04 1018.73 40.8183 1024.2 36.965C1028.08 34.245 1032.45 32.0917 1037.01 31.2133C1044.77 29.6833 1051.17 33.65 1055.23 40.535C1057.01 43.5383 1058.85 47.08 1061.06 49.9133C1065.11 55.1267 1069.59 57.2517 1076.05 55.2683C1076.9 55.0133 1077.81 54.6167 1078.74 54.1917C1084.66 51.5 1088.46 45.8333 1092.48 41.8667C1094.47 39.9117 1096.08 38.41 1097.44 37.4183C1100.36 35.2933 1101.75 33.5367 1104.55 32.4317C1105.77 31.95 1107.56 30.9583 1109.57 31.3267C1113.68 32.0917 1118.21 32.0067 1121.78 35.3783C1124.22 37.6733 1126.03 40.3933 1130.59 40.62C1131.07 40.6483 1131.58 40.6483 1132.12 40.6483C1135.98 40.6767 1138.78 39.2033 1141.67 38.58C1146.91 37.475 1154.22 39.5433 1159.18 39.6283" stroke="#F3F3F3" stroke-width="2" stroke-miterlimit="10"/>
<path d="M981.815 36.8517C984.507 33.395 987.255 28.55 991.477 26.7933C996.407 24.725 998.163 27.6433 1000.83 31.2983C1002.1 33.0833 1003.97 34.3017 1005.76 35.01C1012.39 37.6733 1018.45 33.4517 1023.86 29.57C1027.66 26.8217 1031.96 24.6117 1036.44 23.62C1044.18 21.9483 1050.47 25.9433 1054.63 32.6017C1056.47 35.5767 1058.43 38.9767 1060.72 41.6683C1064.94 46.5983 1069.48 48.185 1075.74 46.0317C1076.59 45.7483 1077.47 45.3233 1078.37 44.8983C1084.15 42.0933 1087.98 36.54 1092.17 32.8567C1094.24 31.015 1095.91 29.74 1097.3 28.89C1100.28 27.1617 1101.72 25.8583 1104.5 25.1783C1105.72 24.895 1107.5 24.0733 1109.4 24.5833C1113.42 25.6883 1117.93 25.6883 1121.53 28.72C1124.02 30.845 1125.97 33.225 1130.48 33.2817C1130.96 33.2817 1131.47 33.2817 1132.01 33.2817C1135.81 33.2533 1138.64 32.0067 1141.53 31.5817C1146.77 30.7883 1153.91 33.055 1158.84 32.6867" stroke="#6F44D8" stroke-width="2" stroke-miterlimit="10"/>
<path d="M981.843 29.8817C984.478 26.4533 987.17 21.665 991.335 19.8517C996.265 17.7267 997.937 20.6167 1000.57 24.2717C1001.85 26.0567 1003.74 27.2467 1005.56 27.8983C1012.19 30.335 1018.11 26.1133 1023.44 22.1467C1027.18 19.37 1031.37 17.075 1035.82 15.9983C1043.52 14.1567 1049.73 18.2083 1054.01 24.64C1055.93 27.5583 1057.97 30.8733 1060.35 33.395C1064.72 38.0417 1069.36 39.09 1075.43 36.7667C1076.25 36.455 1077.1 36.03 1078.01 35.5483C1083.67 32.63 1087.53 27.1617 1091.86 23.7617C1094.01 22.0617 1095.71 20.9567 1097.19 20.305C1100.22 18.945 1101.72 18.095 1104.44 17.8683C1105.66 17.755 1107.33 17.5283 1109.26 17.8117C1113.42 18.4067 1117.67 19.3133 1121.3 22.0617C1123.85 23.9883 1125.95 26.0283 1130.42 25.9717C1130.9 25.9717 1131.39 25.9433 1131.92 25.9433C1135.66 25.8583 1138.5 24.8383 1141.42 24.6117C1146.63 24.1583 1153.63 26.5667 1158.56 25.745" stroke="#F3F3F3" stroke-width="2" stroke-miterlimit="10"/>
<path d="M981.9 22.9117C984.478 19.4833 987.113 14.7517 991.193 12.91C996.123 10.7 997.71 13.5617 1000.32 17.245C1001.59 19.0583 1003.55 20.1917 1005.39 20.7867C1012.02 22.9683 1017.83 18.7467 1023.04 14.7233C1026.72 11.89 1030.8 9.51 1035.19 8.37666C1042.84 6.39333 1048.96 10.445 1053.36 16.7067C1055.37 19.5683 1057.46 22.77 1059.96 25.15C1064.49 29.5417 1069.22 30.0233 1075.09 27.53C1075.91 27.19 1076.73 26.7367 1077.61 26.255C1083.13 23.2233 1087.04 17.8683 1091.52 14.7517C1093.76 13.1933 1095.52 12.2583 1097.02 11.7767C1100.08 10.8133 1101.69 10.4167 1104.33 10.615C1105.55 10.7 1107.19 10.6717 1109.03 11.0683C1113.2 12.0033 1117.33 12.9667 1120.96 15.4033C1123.57 17.16 1125.78 18.8317 1130.25 18.6333C1130.73 18.605 1131.22 18.605 1131.75 18.5767C1135.47 18.4633 1138.3 17.67 1141.19 17.6133C1146.4 17.5 1153.23 20.0783 1158.16 18.8033" stroke="#6F44D8" stroke-width="2" stroke-miterlimit="10"/>
<path d="M981.957 15.9417C984.478 12.5417 987.057 7.86667 991.08 5.99667C996.01 3.70167 997.483 6.56334 1000.12 10.2467C1001.39 12.06 1003.38 13.165 1005.27 13.7033C1011.9 15.63 1017.57 11.4083 1022.7 7.35667C1026.33 4.495 1030.32 2.03001 1034.63 0.811672C1042.25 -1.34166 1048.28 2.76667 1052.76 8.80167C1054.86 11.6067 1057.04 14.7233 1059.59 16.9333C1064.29 21.0417 1069.08 20.985 1074.78 18.2933C1075.57 17.925 1076.39 17.4433 1077.24 16.9333C1082.62 13.7883 1086.56 8.54667 1091.21 5.685C1093.53 4.26834 1095.35 3.50334 1096.88 3.22001C1099.99 2.62501 1101.69 2.73834 1104.27 3.33334C1105.49 3.61667 1107.08 3.78667 1108.86 4.325C1113.03 5.57167 1117.08 6.62001 1120.7 8.74501C1123.4 10.3317 1125.72 11.6633 1130.17 11.3233C1130.65 11.295 1131.13 11.2667 1131.64 11.2383C1135.3 11.0683 1138.16 10.5017 1141.05 10.615C1146.26 10.8133 1152.92 13.59 1157.82 11.8617" stroke="#F3F3F3" stroke-width="2" stroke-miterlimit="10"/>
<path d="M982.013 9.00001C984.478 5.60001 987 0.981672 990.938 -0.916662C995.868 -3.29666 997.257 -0.463329 999.863 3.24834C1001.14 5.06167 1003.18 6.13834 1005.1 6.62001C1011.73 8.32001 1017.26 4.09834 1022.3 -0.0383265C1025.84 -2.92833 1029.75 -5.47833 1034 -6.75333C1041.6 -9.07666 1047.55 -4.94 1052.14 0.925005C1054.29 3.67334 1056.59 6.67667 1059.22 8.74501C1064.09 12.57 1068.97 11.975 1074.46 9.11334C1075.26 8.71667 1076.02 8.20667 1076.87 7.69667C1082.11 4.43834 1086.11 -0.689995 1090.9 -3.26833C1093.31 -4.57166 1095.15 -5.13833 1096.76 -5.25166C1099.94 -5.47833 1101.69 -4.88333 1104.21 -3.86333C1105.43 -3.38166 1106.99 -3.01333 1108.72 -2.36166C1112.88 -0.746663 1116.85 0.30167 1120.48 2.17167C1123.23 3.58834 1125.69 4.55167 1130.08 4.07001C1130.56 4.01334 1131.05 3.985 1131.56 3.95667C1135.15 3.75834 1138.02 3.41834 1140.93 3.70167C1146.12 4.24001 1152.64 7.15834 1157.54 4.97667" stroke="#6F44D8" stroke-width="2" stroke-miterlimit="10"/>
<path d="M982.042 2.03001C984.45 -1.36999 986.915 -5.93166 990.768 -7.85832C995.698 -10.3233 996.973 -7.51832 999.58 -3.77832C1000.86 -1.93666 1002.95 -0.916656 1004.91 -0.491656C1011.51 0.981677 1016.92 -3.26833 1021.88 -7.46166C1025.36 -10.4083 1029.16 -13.015 1033.35 -14.375C1040.89 -16.84 1046.78 -12.675 1051.46 -7.03666C1053.7 -4.34499 1056.08 -1.42666 1058.8 0.471675C1063.84 4.01334 1068.77 2.85168 1074.1 -0.151657C1074.86 -0.576657 1075.63 -1.11499 1076.45 -1.65332C1081.55 -5.02499 1085.6 -10.04 1090.53 -12.335C1093 -13.4967 1094.92 -13.7517 1096.57 -13.8083C1099.8 -13.95 1101.61 -12.5617 1104.07 -11.145C1105.26 -10.465 1106.79 -9.89832 1108.47 -9.10499C1112.6 -7.14999 1116.48 -6.04499 1120.14 -4.48666C1122.97 -3.26832 1125.55 -2.61666 1129.91 -3.23999C1130.37 -3.29666 1130.88 -3.35332 1131.36 -3.38166C1134.9 -3.63666 1137.79 -3.74999 1140.68 -3.26832C1145.87 -2.38999 1152.21 0.698342 1157.09 -1.93666" stroke="#F3F3F3" stroke-width="2" stroke-miterlimit="10"/>
</g>
<g filter="url(#filter0_f_353_4871)">
<ellipse cx="939" cy="283.5" rx="189" ry="140.5" fill="#0096EB" fill-opacity="0.17"/>
</g>
<path d="M454.991 117.939C451.554 116.156 445.826 115.138 438.061 115.011H434.114H431.059C428.386 115.011 426.222 114.756 424.822 114.502C423.294 114.12 422.403 113.738 422.021 113.356C421.639 112.974 421.385 112.465 421.385 111.701C421.385 111.065 421.512 110.428 421.894 110.046C422.276 109.664 423.294 109.282 424.949 108.9C426.604 108.519 428.641 108.391 431.823 108.391H433.732C435.769 108.391 437.042 108.519 438.57 108.773C440.097 109.028 441.243 109.282 442.134 109.537C442.898 109.792 443.534 110.301 444.044 110.683C444.553 111.192 444.807 111.574 444.935 111.828C445.062 112.083 445.189 112.465 445.189 112.847H458.81V112.337C458.81 111.065 458.555 109.919 458.174 108.9C457.792 107.755 457.028 106.736 455.882 105.591C454.736 104.445 453.336 103.554 451.554 102.79C449.772 102.026 447.481 101.39 444.553 100.881C441.625 100.372 438.188 100.117 434.369 100.117H430.423C426.731 100.117 423.549 100.372 420.748 100.753C417.948 101.263 415.784 101.772 414.129 102.536C412.474 103.299 411.201 104.19 410.182 105.209C409.164 106.227 408.528 107.373 408.146 108.391C407.764 109.41 407.636 110.555 407.636 111.828V112.337C407.636 119.466 414.511 123.285 428.131 123.667L431.186 123.794L435.26 123.922C438.315 124.049 440.734 124.176 442.389 124.558C444.043 124.94 445.062 125.322 445.571 125.831C446.08 126.34 446.208 126.977 446.208 127.74C446.208 128.377 446.08 128.886 445.826 129.268C445.571 129.65 445.062 130.159 444.298 130.541C443.534 130.923 442.261 131.305 440.479 131.559C438.697 131.814 437.679 131.941 435.005 131.941H431.95C423.931 131.941 421.003 129.905 420.748 125.831H407V126.34C407 127.486 407.127 128.632 407.382 129.777C407.636 130.796 408.273 132.069 409.291 133.342C410.31 134.615 411.583 135.76 413.365 136.779C415.02 137.67 417.438 138.561 420.621 139.197C423.676 139.834 427.368 140.216 431.568 140.216H435.515C439.588 140.216 443.152 139.961 446.08 139.452C449.135 138.943 451.427 138.306 453.209 137.542C454.991 136.779 456.391 135.76 457.41 134.615C458.428 133.469 459.192 132.323 459.446 131.177C459.828 130.032 459.956 128.759 459.956 127.359V126.595C460.21 122.521 458.555 119.721 454.991 117.939ZM564.849 118.448C564.849 119.848 564.594 121.121 564.212 122.267C563.83 123.412 563.194 124.558 562.175 125.704C561.284 126.849 559.757 127.74 557.847 128.377C555.938 129.013 553.646 129.395 550.973 129.395C548.3 129.395 546.009 129.013 544.099 128.377C542.19 127.74 540.789 126.849 539.771 125.704C538.88 124.558 538.116 123.412 537.734 122.267C537.352 121.121 537.098 119.848 537.098 118.448V100.626H523.986V119.084C523.986 120.23 524.113 121.376 524.241 122.521C524.368 123.667 524.75 124.94 525.259 126.213C525.768 127.613 526.405 128.886 527.169 130.032C527.932 131.178 529.078 132.45 530.351 133.596C531.751 134.742 533.279 135.76 535.061 136.524C536.843 137.288 539.007 138.052 541.553 138.561C544.099 139.07 546.9 139.325 550.082 139.325H552.119C556.192 139.325 559.757 138.815 562.939 137.924C566.122 136.906 568.54 135.76 570.322 134.36C572.105 132.96 573.632 131.305 574.778 129.395C575.923 127.486 576.687 125.704 577.069 124.049C577.451 122.394 577.706 120.739 577.706 119.212V100.753H564.849V118.448ZM702.584 114.629C702.202 113.229 701.693 111.828 700.802 110.428C700.038 109.028 698.893 107.755 697.365 106.609C695.837 105.463 694.055 104.445 691.891 103.554C689.727 102.663 687.181 101.899 683.999 101.517C680.816 101.135 677.252 100.753 673.433 100.753H645.555V139.325H673.433C678.143 139.325 682.344 138.943 685.908 138.179C689.473 137.415 692.4 136.397 694.437 135.124C696.601 133.978 698.256 132.45 699.656 130.668C701.057 128.886 701.948 127.231 702.33 125.704C702.839 124.049 702.966 122.394 702.966 120.612V119.084C703.093 117.429 702.839 115.902 702.584 114.629ZM689.218 120.103C689.218 126.722 683.617 130.032 672.288 130.032H658.667V109.919H672.288C683.49 109.919 689.218 113.229 689.218 119.848V120.103ZM625.951 125.067L599.219 100.881H584.58V139.325H597.564V113.865L626.079 139.325H639.063V100.881H625.951V125.067ZM478.541 103.427H478.286C475.995 103.427 474.086 105.336 474.086 107.628V132.578C474.086 134.869 475.995 136.779 478.286 136.779H478.541C480.832 136.779 482.742 134.869 482.742 132.578V107.628C482.742 105.336 480.832 103.427 478.541 103.427ZM493.18 97.3164C490.889 97.3164 488.852 99.2259 488.852 101.517V138.433C488.852 140.725 490.762 142.634 493.053 142.634C495.344 142.634 497.254 140.725 497.254 138.433V101.517C497.381 99.2259 495.472 97.3164 493.18 97.3164ZM508.456 103.427C506.165 103.427 504.128 105.336 504.128 107.628V132.578C504.128 134.869 506.037 136.779 508.329 136.779C510.62 136.779 512.529 134.869 512.529 132.578V107.628C512.657 105.336 510.747 103.427 508.456 103.427Z" fill="url(#paint0_linear_353_4871)"/>
<path d="M418.966 59H409.673V86.3689H439.715V79.6222H418.966V59ZM442.261 86.2416H451.172V66.5105H442.261V86.2416ZM459.192 64.0919V66.3832H455.118V71.857H459.192V86.1143H467.975V71.857H473.195V66.3832H467.975V65.3649C467.975 64.7284 468.103 64.3465 468.357 64.0919C468.612 63.8373 468.994 63.71 469.758 63.71H473.195V59H466.702C461.738 59 459.192 60.6549 459.192 64.0919ZM442.261 64.6011H451.172V59H442.261V64.6011ZM509.474 76.3124C509.474 69.1838 504.51 65.6195 494.581 65.6195H492.162C489.361 65.6195 486.943 65.8741 484.906 66.3832C482.869 66.8924 481.342 67.6562 480.323 68.6746C479.305 69.693 478.414 70.7114 478.032 71.857C477.523 73.0027 477.268 74.2757 477.268 75.5486V76.3124C477.268 77.7127 477.523 78.9857 478.032 80.1314C478.541 81.277 479.432 82.2954 480.451 83.3138C481.596 84.3322 483.124 85.0959 485.161 85.6051C487.197 86.1143 489.616 86.3689 492.417 86.3689H494.708C497.127 86.3689 499.291 86.2416 501.2 85.8597C503.11 85.4778 504.51 85.0959 505.528 84.5868C506.547 84.0776 507.31 83.4411 507.947 82.6773C508.583 81.9135 508.965 81.277 509.22 80.7678C509.347 80.1314 509.474 79.6222 509.474 78.9857H500.691C500.691 79.113 500.564 79.2403 500.436 79.4949C500.309 79.6222 500.182 79.8768 499.8 80.1314C499.545 80.3859 499.163 80.6405 498.654 80.7678C498.145 81.0224 497.508 81.1497 496.617 81.277C495.726 81.4043 494.708 81.5316 493.69 81.5316C489.234 81.5316 486.688 80.2586 486.052 77.7127H509.602V76.3124H509.474ZM486.052 73.6392C486.815 71.4751 489.107 70.3295 493.18 70.3295C497.381 70.3295 499.8 71.4751 500.436 73.6392H486.052Z" fill="#F3F3F3"/>
<g filter="url(#filter1_f_353_4871)">
<ellipse cx="183" cy="-87.5" rx="243" ry="181.5" fill="#6F44D8" fill-opacity="0.18"/>
</g>
</g>
<defs>
<filter id="filter0_f_353_4871" x="696" y="89" width="486" height="389" filterUnits="userSpaceOnUse" color-interpolation-filters="sRGB">
<feFlood flood-opacity="0" result="BackgroundImageFix"/>
<feBlend mode="normal" in="SourceGraphic" in2="BackgroundImageFix" result="shape"/>
<feGaussianBlur stdDeviation="27" result="effect1_foregroundBlur_353_4871"/>
</filter>
<filter id="filter1_f_353_4871" x="-114" y="-323" width="594" height="471" filterUnits="userSpaceOnUse" color-interpolation-filters="sRGB">
<feFlood flood-opacity="0" result="BackgroundImageFix"/>
<feBlend mode="normal" in="SourceGraphic" in2="BackgroundImageFix" result="shape"/>
<feGaussianBlur stdDeviation="27" result="effect1_foregroundBlur_353_4871"/>
</filter>
<linearGradient id="paint0_linear_353_4871" x1="407.283" y1="120.097" x2="703.062" y2="120.097" gradientUnits="userSpaceOnUse">
<stop stop-color="#6F44D8"/>
<stop offset="1" stop-color="#0096EB"/>
</linearGradient>
<clipPath id="clip0_353_4871">
<rect width="1110" height="202" fill="white"/>
</clipPath>
</defs>
</svg>
