<svg width="375" height="202" viewBox="0 0 375 202" fill="none" xmlns="http://www.w3.org/2000/svg">
<g clip-path="url(#clip0_8_3602)">
<rect width="375" height="202" fill="url(#paint0_linear_8_3602)"/>
<g filter="url(#filter0_f_8_3602)">
<ellipse cx="337.5" cy="181.5" rx="90.5" ry="67.5" fill="#0096EB" fill-opacity="0.17"/>
</g>
<g filter="url(#filter1_f_8_3602)">
<ellipse cx="-0.5" cy="8.5" rx="90.5" ry="67.5" fill="#6F44D8" fill-opacity="0.18"/>
</g>
<path d="M124.412 112.35C122.234 111.221 118.604 110.575 113.683 110.495H111.183H109.247C107.553 110.495 106.181 110.333 105.294 110.172C104.326 109.93 103.761 109.688 103.519 109.446C103.277 109.204 103.116 108.881 103.116 108.397C103.116 107.994 103.196 107.591 103.438 107.349C103.68 107.107 104.326 106.865 105.374 106.622C106.423 106.38 107.714 106.3 109.731 106.3H110.941C112.231 106.3 113.038 106.38 114.006 106.542C114.974 106.703 115.7 106.865 116.265 107.026C116.749 107.187 117.152 107.51 117.475 107.752C117.798 108.075 117.959 108.317 118.04 108.478C118.12 108.639 118.201 108.881 118.201 109.123H126.833V108.801C126.833 107.994 126.671 107.268 126.429 106.622C126.187 105.896 125.703 105.251 124.977 104.525C124.251 103.799 123.364 103.234 122.234 102.75C121.105 102.266 119.653 101.863 117.798 101.54C115.942 101.218 113.764 101.056 111.344 101.056H108.843C106.504 101.056 104.487 101.218 102.712 101.46C100.938 101.782 99.5662 102.105 98.5175 102.589C97.4688 103.073 96.6621 103.638 96.0167 104.283C95.3714 104.928 94.968 105.654 94.726 106.3C94.484 106.945 94.4033 107.671 94.4033 108.478V108.801C94.4033 113.318 98.7595 115.738 107.391 115.98L109.327 116.061L111.909 116.142C113.845 116.222 115.377 116.303 116.426 116.545C117.475 116.787 118.12 117.029 118.443 117.352C118.766 117.674 118.846 118.078 118.846 118.562C118.846 118.965 118.766 119.288 118.604 119.53C118.443 119.772 118.12 120.094 117.636 120.336C117.152 120.578 116.346 120.82 115.216 120.982C114.087 121.143 113.441 121.224 111.747 121.224H109.811C104.729 121.224 102.874 119.933 102.712 117.352H94V117.674C94 118.4 94.0807 119.126 94.242 119.852C94.4033 120.498 94.8067 121.304 95.452 122.111C96.0974 122.918 96.9041 123.644 98.0335 124.289C99.0822 124.854 100.615 125.419 102.632 125.822C104.568 126.225 106.907 126.467 109.569 126.467H112.07C114.651 126.467 116.91 126.306 118.766 125.983C120.702 125.661 122.154 125.257 123.283 124.773C124.412 124.289 125.3 123.644 125.945 122.918C126.591 122.192 127.075 121.466 127.236 120.74C127.478 120.014 127.559 119.207 127.559 118.32V117.836C127.72 115.254 126.671 113.479 124.412 112.35ZM194.03 112.673C194.03 113.56 193.869 114.367 193.627 115.093C193.385 115.819 192.982 116.545 192.336 117.271C191.772 117.997 190.804 118.562 189.594 118.965C188.384 119.368 186.932 119.61 185.237 119.61C183.543 119.61 182.091 119.368 180.881 118.965C179.671 118.562 178.784 117.997 178.139 117.271C177.574 116.545 177.09 115.819 176.848 115.093C176.606 114.367 176.444 113.56 176.444 112.673V101.379H168.135V113.076C168.135 113.802 168.216 114.528 168.297 115.254C168.377 115.98 168.619 116.787 168.942 117.594C169.265 118.481 169.668 119.288 170.152 120.014C170.636 120.74 171.362 121.546 172.169 122.272C173.056 122.998 174.024 123.644 175.154 124.128C176.283 124.612 177.655 125.096 179.268 125.419C180.881 125.741 182.656 125.903 184.673 125.903H185.963C188.545 125.903 190.804 125.58 192.82 125.015C194.837 124.37 196.37 123.644 197.499 122.756C198.629 121.869 199.597 120.82 200.323 119.61C201.049 118.4 201.533 117.271 201.775 116.222C202.017 115.173 202.178 114.125 202.178 113.157V101.46H194.03V112.673ZM281.315 110.253C281.073 109.365 280.75 108.478 280.186 107.591C279.702 106.703 278.976 105.896 278.008 105.17C277.04 104.444 275.91 103.799 274.539 103.234C273.167 102.67 271.554 102.186 269.537 101.944C267.521 101.702 265.262 101.46 262.842 101.46H245.175V125.903H262.842C265.826 125.903 268.489 125.661 270.747 125.177C273.006 124.693 274.861 124.047 276.152 123.24C277.524 122.514 278.572 121.546 279.46 120.417C280.347 119.288 280.912 118.239 281.154 117.271C281.476 116.222 281.557 115.173 281.557 114.044V113.076C281.638 112.027 281.476 111.059 281.315 110.253ZM272.845 113.721C272.845 117.916 269.295 120.014 262.116 120.014H253.484V107.268H262.116C269.215 107.268 272.845 109.365 272.845 113.56V113.721ZM232.752 116.868L215.811 101.54H206.534V125.903H214.763V109.769L232.833 125.903H241.061V101.54H232.752V116.868ZM139.336 103.154H139.175C137.723 103.154 136.513 104.364 136.513 105.816V121.627C136.513 123.079 137.723 124.289 139.175 124.289H139.336C140.788 124.289 141.998 123.079 141.998 121.627V105.816C141.998 104.364 140.788 103.154 139.336 103.154ZM148.613 99.2816C147.161 99.2816 145.871 100.492 145.871 101.944V125.338C145.871 126.79 147.081 128 148.533 128C149.985 128 151.195 126.79 151.195 125.338V101.944C151.275 100.492 150.065 99.2816 148.613 99.2816ZM158.294 103.154C156.842 103.154 155.551 104.364 155.551 105.816V121.627C155.551 123.079 156.761 124.289 158.213 124.289C159.665 124.289 160.875 123.079 160.875 121.627V105.816C160.956 104.364 159.746 103.154 158.294 103.154Z" fill="#F3F3F3"/>
<path d="M101.583 75H95.6941V92.344H114.732V88.0685H101.583V75ZM116.346 92.2633H121.992V79.7595H116.346V92.2633ZM127.075 78.2268V79.6788H124.493V83.1476H127.075V92.1827H132.641V83.1476H135.948V79.6788H132.641V79.0335C132.641 78.6301 132.721 78.3881 132.883 78.2268C133.044 78.0654 133.286 77.9848 133.77 77.9848H135.948V75H131.834C128.688 75 127.075 76.0487 127.075 78.2268ZM116.346 78.5495H121.992V75H116.346V78.5495ZM158.939 85.9711C158.939 81.4536 155.793 79.1948 149.501 79.1948H147.968C146.193 79.1948 144.661 79.3562 143.37 79.6788C142.079 80.0015 141.111 80.4855 140.466 81.1309C139.82 81.7763 139.256 82.4216 139.014 83.1476C138.691 83.8737 138.53 84.6804 138.53 85.4871V85.9711C138.53 86.8585 138.691 87.6651 139.014 88.3912C139.336 89.1172 139.901 89.7626 140.546 90.4079C141.272 91.0533 142.241 91.5373 143.531 91.86C144.822 92.1826 146.355 92.344 148.129 92.344H149.581C151.114 92.344 152.486 92.2633 153.696 92.0213C154.906 91.7793 155.793 91.5373 156.438 91.2146C157.084 90.8919 157.568 90.4886 157.971 90.0046C158.374 89.5206 158.616 89.1172 158.778 88.7945C158.858 88.3912 158.939 88.0685 158.939 87.6651H153.373C153.373 87.7458 153.292 87.8265 153.212 87.9878C153.131 88.0685 153.05 88.2298 152.808 88.3912C152.647 88.5525 152.405 88.7139 152.082 88.7945C151.76 88.9559 151.356 89.0365 150.791 89.1172C150.227 89.1979 149.581 89.2785 148.936 89.2785C146.113 89.2785 144.499 88.4718 144.096 86.8584H159.02V85.9711H158.939ZM144.096 84.277C144.58 82.9056 146.032 82.1796 148.613 82.1796C151.276 82.1796 152.808 82.9056 153.212 84.277H144.096Z" fill="#F3F3F3"/>
<mask id="mask0_8_3602" style="mask-type:luminance" maskUnits="userSpaceOnUse" x="-73" y="108" width="156" height="156">
<path d="M4.99994 263.945C48.0478 263.945 82.9449 229.048 82.9449 186C82.9449 142.952 48.0478 108.055 4.99994 108.055C-38.0479 108.055 -72.9451 142.952 -72.9451 186C-72.9451 229.048 -38.0479 263.945 4.99994 263.945Z" fill="white"/>
</mask>
<g mask="url(#mask0_8_3602)">
<path d="M-85.2983 210.792C-82.4933 207.335 -79.6317 202.348 -75.2683 200.677C-70.3383 198.778 -68.3833 201.725 -65.72 205.352C-64.445 207.108 -62.66 208.412 -60.96 209.233C-54.33 212.435 -47.9833 208.185 -42.43 204.388C-38.4917 201.697 -34.015 199.628 -29.3967 198.835C-21.5767 197.475 -15.0883 201.413 -11.1783 208.468C-9.47834 211.528 -7.69334 215.155 -5.59667 218.158C-1.715 223.655 2.67666 226.318 9.33499 224.533C10.2133 224.307 11.12 223.938 12.0833 223.513C18.1467 220.935 21.8867 215.155 25.7683 210.933C27.695 208.837 29.225 207.165 30.5567 206.003C33.39 203.482 34.75 201.3 37.6117 199.742C38.83 199.09 40.6433 197.9 42.74 198.127C46.905 198.552 51.495 198.41 55.0367 202.093C57.4167 204.558 59.0883 207.647 63.6783 207.987C64.16 208.015 64.67 208.043 65.2367 208.043C69.1467 208.1 71.9517 206.4 74.8417 205.607C80.1117 204.162 87.5633 206.06 92.5217 206.627" stroke="#00EB42" stroke-width="2" stroke-miterlimit="10"/>
<path d="M-85.2417 203.822C-82.4934 200.365 -79.6884 195.463 -75.3817 193.735C-70.4517 191.752 -68.5817 194.698 -65.9467 198.325C-64.6717 200.11 -62.8584 201.357 -61.1017 202.122C-54.4717 205.04 -48.2667 200.818 -42.7984 196.965C-38.9167 194.245 -34.5534 192.092 -29.9917 191.213C-22.2284 189.683 -15.825 193.65 -11.7734 200.535C-9.98838 203.538 -8.14671 207.08 -5.93671 209.913C-1.88504 215.127 2.59162 217.252 9.05162 215.268C9.90162 215.013 10.8083 214.617 11.7433 214.192C17.665 211.5 21.4616 205.833 25.485 201.867C27.4683 199.912 29.0833 198.41 30.4433 197.418C33.3616 195.293 34.75 193.537 37.555 192.432C38.7733 191.95 40.5583 190.958 42.57 191.327C46.6783 192.092 51.2116 192.007 54.7816 195.378C57.2183 197.673 59.0316 200.393 63.5933 200.62C64.0749 200.648 64.585 200.648 65.1233 200.648C68.9766 200.677 71.7816 199.203 74.6716 198.58C79.9133 197.475 87.2233 199.543 92.1816 199.628" stroke="#F3F3F3" stroke-width="2" stroke-miterlimit="10"/>
<path d="M-85.1851 196.852C-82.4934 193.395 -79.7451 188.55 -75.5234 186.793C-70.5934 184.725 -68.8367 187.643 -66.1734 191.298C-64.8984 193.083 -63.0284 194.302 -61.2434 195.01C-54.6134 197.673 -48.5501 193.452 -43.1384 189.57C-39.3417 186.822 -35.0351 184.612 -30.5584 183.62C-22.8234 181.948 -16.5334 185.943 -12.3684 192.602C-10.5267 195.577 -8.57173 198.977 -6.27673 201.668C-2.05506 206.598 2.47827 208.185 8.73994 206.032C9.58994 205.748 10.4683 205.323 11.3749 204.898C17.1549 202.093 20.9799 196.54 25.1733 192.857C27.2416 191.015 28.9133 189.74 30.3016 188.89C33.2766 187.162 34.7216 185.858 37.4983 185.178C38.7166 184.895 40.5016 184.073 42.3999 184.583C46.4233 185.688 50.9283 185.688 54.5266 188.72C57.0199 190.845 58.9749 193.225 63.4799 193.282C63.9616 193.282 64.4716 193.282 65.0099 193.282C68.8066 193.253 71.6399 192.007 74.5299 191.582C79.7716 190.788 86.9116 193.055 91.8416 192.687" stroke="#00EB42" stroke-width="2" stroke-miterlimit="10"/>
<path d="M-85.1567 189.882C-82.5217 186.453 -79.8301 181.665 -75.6651 179.852C-70.7351 177.727 -69.0634 180.617 -66.4284 184.272C-65.1534 186.057 -63.2551 187.247 -61.4417 187.898C-54.8117 190.335 -48.8901 186.113 -43.5634 182.147C-39.8234 179.37 -35.6301 177.075 -31.1817 175.998C-23.4751 174.157 -17.2701 178.208 -12.9917 184.64C-11.0651 187.558 -9.02508 190.873 -6.64508 193.395C-2.28175 198.042 2.36492 199.09 8.42826 196.767C9.24992 196.455 10.0999 196.03 11.0066 195.548C16.6733 192.63 20.5266 187.162 24.8616 183.762C27.0149 182.062 28.7149 180.957 30.1883 180.305C33.2199 178.945 34.7216 178.095 37.4416 177.868C38.6599 177.755 40.3316 177.528 42.2583 177.812C46.4233 178.407 50.6732 179.313 54.2999 182.062C56.8499 183.988 58.9466 186.028 63.4233 185.972C63.9049 185.972 64.3866 185.943 64.9249 185.943C68.6649 185.858 71.4982 184.838 74.4166 184.612C79.6299 184.158 86.6282 186.567 91.5582 185.745" stroke="#F3F3F3" stroke-width="2" stroke-miterlimit="10"/>
<path d="M-85.1001 182.912C-82.5218 179.483 -79.8868 174.752 -75.8068 172.91C-70.8768 170.7 -69.2901 173.562 -66.6834 177.245C-65.4084 179.058 -63.4534 180.192 -61.6118 180.787C-54.9818 182.968 -49.1734 178.747 -43.9601 174.723C-40.2768 171.89 -36.1968 169.51 -31.8051 168.377C-24.1551 166.393 -18.0351 170.445 -13.6434 176.707C-11.6318 179.568 -9.5351 182.77 -7.04176 185.15C-2.50843 189.542 2.22323 190.023 8.08823 187.53C8.9099 187.19 9.73156 186.737 10.6099 186.255C16.1349 183.223 20.0449 177.868 24.5216 174.752C26.7599 173.193 28.5166 172.258 30.0182 171.777C33.0782 170.813 34.6932 170.417 37.3282 170.615C38.5466 170.7 40.1899 170.672 42.0316 171.068C46.1966 172.003 50.3332 172.967 53.9599 175.403C56.5666 177.16 58.7766 178.832 63.2532 178.633C63.7349 178.605 64.2166 178.605 64.7549 178.577C68.4666 178.463 71.2999 177.67 74.1899 177.613C79.4032 177.5 86.2316 180.078 91.1616 178.803" stroke="#00EB42" stroke-width="2" stroke-miterlimit="10"/>
<path d="M-85.0435 175.942C-82.5218 172.542 -79.9435 167.867 -75.9201 165.997C-70.9901 163.702 -69.5168 166.563 -66.8818 170.247C-65.6068 172.06 -63.6235 173.165 -61.7251 173.703C-55.0951 175.63 -49.4285 171.408 -44.3001 167.357C-40.6735 164.495 -36.6785 162.03 -32.3718 160.812C-24.7501 158.658 -18.7151 162.767 -14.2385 168.802C-12.1418 171.607 -9.96013 174.723 -7.41013 176.933C-2.7068 181.042 2.08153 180.985 7.77653 178.293C8.56986 177.925 9.39153 177.443 10.2415 176.933C15.6249 173.788 19.5632 168.547 24.2099 165.685C26.5332 164.268 28.3465 163.503 29.8765 163.22C32.9932 162.625 34.6932 162.738 37.2715 163.333C38.4899 163.617 40.0765 163.787 41.8615 164.325C46.0265 165.572 50.0782 166.62 53.7049 168.745C56.3965 170.332 58.7199 171.663 63.1682 171.323C63.6499 171.295 64.1315 171.267 64.6415 171.238C68.2965 171.068 71.1582 170.502 74.0482 170.615C79.2615 170.813 85.9199 173.59 90.8215 171.862" stroke="#F3F3F3" stroke-width="2" stroke-miterlimit="10"/>
<path d="M-84.9868 169C-82.5218 165.6 -80.0001 160.982 -76.0618 159.083C-71.1318 156.703 -69.7435 159.537 -67.1368 163.248C-65.8618 165.062 -63.8218 166.138 -61.8951 166.62C-55.2652 168.32 -49.7402 164.098 -44.6968 159.962C-41.1552 157.072 -37.2452 154.522 -32.9952 153.247C-25.4018 150.923 -19.4518 155.06 -14.8618 160.925C-12.7085 163.673 -10.4135 166.677 -7.77848 168.745C-2.90515 172.57 1.96819 171.975 7.46485 169.113C8.25819 168.717 9.02319 168.207 9.87319 167.697C15.1149 164.438 19.1099 159.31 23.8982 156.732C26.3065 155.428 28.1482 154.862 29.7632 154.748C32.9365 154.522 34.6932 155.117 37.2149 156.137C38.4332 156.618 39.9915 156.987 41.7199 157.638C45.8849 159.253 49.8515 160.302 53.4782 162.172C56.2265 163.588 58.6915 164.552 63.0832 164.07C63.5648 164.013 64.0465 163.985 64.5565 163.957C68.1548 163.758 71.0165 163.418 73.9348 163.702C79.1198 164.24 85.6365 167.158 90.5382 164.977" stroke="#00EB42" stroke-width="2" stroke-miterlimit="10"/>
<path d="M-84.9583 162.03C-82.5499 158.63 -80.0849 154.068 -76.2316 152.142C-71.3016 149.677 -70.0266 152.482 -67.4199 156.222C-66.1449 158.063 -64.0483 159.083 -62.0933 159.508C-55.4916 160.982 -50.0799 156.732 -45.1216 152.538C-41.6366 149.592 -37.8399 146.985 -33.6466 145.625C-26.1099 143.16 -20.2166 147.325 -15.5416 152.963C-13.3033 155.655 -10.9233 158.573 -8.20325 160.472C-3.15992 164.013 1.77008 162.852 7.09675 159.848C7.86175 159.423 8.62675 158.885 9.44842 158.347C14.5484 154.975 18.6001 149.96 23.5301 147.665C25.9951 146.503 27.9218 146.248 29.5651 146.192C32.7951 146.05 34.6084 147.438 37.0734 148.855C38.2634 149.535 39.7934 150.102 41.4651 150.895C45.6018 152.85 49.4834 153.955 53.1384 155.513C55.9717 156.732 58.5501 157.383 62.9134 156.76C63.3668 156.703 63.8767 156.647 64.3584 156.618C67.9001 156.363 70.7901 156.25 73.6801 156.732C78.8651 157.61 85.2117 160.698 90.0851 158.063" stroke="#F3F3F3" stroke-width="2" stroke-miterlimit="10"/>
<path d="M-84.9016 155.06C-82.5499 151.66 -80.1416 147.155 -76.3449 145.2C-71.4433 142.65 -70.2249 145.455 -67.6183 149.195C-66.3433 151.037 -64.2183 152.028 -62.2066 152.425C-55.6049 153.672 -50.3066 149.393 -45.4333 145.172C-42.0049 142.197 -38.2933 139.505 -34.1566 138.06C-26.6483 135.425 -20.8399 139.618 -16.0516 145.058C-13.7283 147.722 -11.2916 150.498 -8.45828 152.255C-3.24495 155.513 1.77005 153.813 6.89839 150.64C7.63505 150.187 8.40005 149.648 9.19338 149.082C14.18 145.597 18.2317 140.667 23.3317 138.655C25.8817 137.635 27.8651 137.408 29.5367 137.663C32.8234 138.145 34.6934 139.788 37.13 141.602C38.32 142.48 39.7934 143.245 41.4367 144.152C45.5451 146.475 49.3701 147.58 53.0251 148.883C55.9434 149.903 58.6067 150.215 62.9701 149.45C63.4234 149.365 63.9051 149.308 64.4151 149.28C67.9284 148.997 70.7901 149.082 73.7084 149.762C78.8934 150.952 85.07 154.238 89.9434 151.15" stroke="#00EB42" stroke-width="2" stroke-miterlimit="10"/>
<path d="M-84.845 148.09C-82.55 144.718 -80.1983 140.27 -76.4866 138.258C-71.585 135.623 -70.48 138.4 -67.8733 142.168C-66.5983 144.01 -64.4166 145.002 -62.3766 145.313C-55.775 146.333 -50.6183 142.055 -45.83 137.748C-42.4583 134.745 -38.86 131.968 -34.78 130.438C-27.3 127.633 -21.5766 131.855 -16.7033 137.125C-14.295 139.732 -11.7733 142.423 -8.85497 144.038C-3.49997 147.013 1.60003 144.747 6.55836 141.432C7.29503 140.95 8.00336 140.383 8.7967 139.817C13.6417 136.218 17.75 131.402 22.9917 129.673C25.6267 128.795 27.6667 128.738 29.395 129.163C32.7384 130.013 34.665 132.167 37.045 134.377C38.235 135.482 39.6517 136.417 41.2384 137.465C45.3184 140.128 49.0867 141.262 52.7417 142.282C55.7167 143.103 58.5217 143.075 62.8284 142.197C63.2817 142.112 63.7634 142.027 64.245 141.97C67.7017 141.63 70.5917 141.97 73.51 142.82C78.6667 144.35 84.7017 147.778 89.575 144.237" stroke="#F3F3F3" stroke-width="2" stroke-miterlimit="10"/>
<path d="M-84.7883 141.12C-82.55 137.748 -80.2833 133.357 -76.6283 131.317C-71.7267 128.597 -70.7067 131.373 -68.1283 135.142C-66.8533 137.012 -64.6433 137.947 -62.575 138.202C-55.9733 138.995 -50.9583 134.688 -46.255 130.353C-42.94 127.293 -39.455 124.46 -35.4317 122.845C-28.0083 119.87 -22.3417 124.12 -17.3833 129.192C-14.89 131.713 -12.2833 134.32 -9.30832 135.793C-3.78332 138.485 1.37335 135.68 6.16168 132.167C6.87001 131.657 7.57834 131.062 8.34334 130.467C13.0467 126.755 17.2117 122.052 22.595 120.578C25.315 119.842 27.4117 119.955 29.1683 120.578C32.5683 121.768 34.5233 124.432 36.9033 127.067C38.065 128.37 39.4533 129.503 40.9833 130.665C45.0067 133.697 48.7467 134.83 52.4017 135.567C55.4617 136.19 58.38 135.85 62.6584 134.802C63.1117 134.688 63.5934 134.603 64.075 134.547C67.475 134.178 70.3934 134.717 73.2834 135.765C78.44 137.607 84.305 141.233 89.15 137.238" stroke="#00EB42" stroke-width="2" stroke-miterlimit="10"/>
<path d="M-84.76 134.15C-82.55 130.807 -80.34 126.443 -76.7417 124.403C-71.84 121.598 -70.9333 124.347 -68.3267 128.143C-67.0517 130.013 -64.785 130.92 -62.6883 131.118C-56.0867 131.685 -51.185 127.35 -46.595 122.958C-43.365 119.87 -39.965 116.952 -35.9983 115.252C-28.6033 112.107 -23.0217 116.385 -17.95 121.287C-15.3717 123.752 -12.68 126.273 -9.62002 127.577C-3.92502 129.985 1.28832 126.613 5.90666 122.958C6.58666 122.42 7.29499 121.797 8.03166 121.202C12.5933 117.377 16.7867 112.787 22.34 111.597C25.145 111.002 27.2983 111.257 29.1117 112.078C32.5683 113.637 34.5517 116.81 36.9033 119.842C38.065 121.343 39.3967 122.703 40.8983 123.978C44.865 127.378 48.5767 128.512 52.2317 128.993C55.3767 129.418 58.38 128.738 62.6583 127.577C63.1117 127.463 63.5933 127.35 64.0467 127.293C67.39 126.868 70.3083 127.633 73.2266 128.88C78.3833 131.062 84.0783 134.858 88.9233 130.382" stroke="#F3F3F3" stroke-width="2" stroke-miterlimit="10"/>
<path d="M-84.7034 127.18C-82.5784 123.837 -80.425 119.53 -76.8834 117.462C-72.01 114.572 -71.16 117.32 -68.5817 121.117C-67.3067 122.987 -65.0117 123.893 -62.8584 124.007C-56.2567 124.375 -51.4967 119.983 -46.9917 115.535C-43.8184 112.418 -40.5034 109.387 -36.6217 107.63C-29.2834 104.315 -23.7584 108.622 -18.6017 113.325C-15.9384 115.733 -13.19 118.142 -10.0167 119.303C-4.1517 121.428 1.1183 117.49 5.5383 113.693C6.2183 113.127 6.8983 112.475 7.5783 111.852C11.9983 107.913 16.2483 103.437 21.9433 102.502C24.8333 102.048 27.0433 102.473 28.885 103.493C32.4266 105.42 34.4383 109.075 36.7333 112.532C37.8666 114.232 39.17 115.79 40.615 117.178C44.525 120.947 48.18 122.052 51.8633 122.278C55.065 122.477 58.21 121.485 62.46 120.182C62.9133 120.04 63.3666 119.927 63.8483 119.87C67.135 119.388 70.0816 120.408 73 121.825C78.1283 124.318 83.6816 128.285 88.5266 123.383" stroke="#00EB42" stroke-width="2" stroke-miterlimit="10"/>
<path d="M-84.6467 120.21C-82.5784 116.895 -80.4817 112.617 -77.0251 110.52C-72.1517 107.545 -71.3867 110.265 -68.8084 114.09C-67.5334 115.988 -65.1817 116.838 -63.0001 116.895C-56.3984 117.037 -51.7801 112.645 -47.3601 108.14C-44.2434 104.967 -41.0417 101.878 -37.1884 100.037C-29.8784 96.5517 -24.4384 100.887 -19.1967 105.42C-16.4484 107.772 -13.6151 110.095 -10.3567 111.087C-4.32172 112.928 1.00494 108.423 5.25494 104.485C5.90661 103.862 6.55828 103.238 7.23828 102.587C11.5449 98.535 15.7949 94.1717 21.6599 93.52C24.6066 93.2083 26.9016 93.8033 28.7716 94.9933C32.3699 97.26 34.4099 101.425 36.7049 105.307C37.8099 107.205 39.0566 108.962 40.5016 110.492C44.3549 114.628 47.9816 115.96 51.665 115.677C54.9233 115.422 58.21 114.373 62.4033 112.928C62.8566 112.758 63.3099 112.673 63.7633 112.588C67.0216 112.078 69.9683 113.297 72.8583 114.883C77.9866 117.717 83.3416 121.853 88.1866 116.498" stroke="#F3F3F3" stroke-width="2" stroke-miterlimit="10"/>
<path d="M-84.5901 113.24C-82.5784 109.953 -80.5668 105.732 -77.1668 103.607C-72.2934 100.547 -71.6418 103.238 -69.0634 107.092C-67.7884 108.99 -65.4084 109.783 -63.1701 109.812C-56.5684 109.925 -52.0918 105.307 -47.7568 100.745C-44.6968 97.5433 -41.6084 94.37 -37.8118 92.4716C-30.5584 88.8166 -25.1751 93.18 -19.8201 97.515C-16.9868 99.81 -14.0684 102.02 -10.7251 102.87C-4.52009 104.428 0.863245 99.385 4.94324 95.2483C5.56658 94.5966 6.21825 93.945 6.86992 93.265C11.0349 89.1 15.3416 84.85 21.3483 84.4816C24.3799 84.2833 26.7316 85.0766 28.6582 86.465C32.3416 89.1 34.3816 93.775 36.6483 98.0533C37.7533 100.15 38.9433 102.105 40.3316 103.748C44.0999 108.253 47.6982 109.302 51.4099 109.047C54.7532 108.792 58.1249 107.205 62.3182 105.647C62.7716 105.477 63.2249 105.363 63.6782 105.278C66.8799 104.712 69.8549 106.157 72.7449 107.942C77.8732 111.087 83.0582 115.422 87.9032 109.585" stroke="#00EB42" stroke-width="2" stroke-miterlimit="10"/>
</g>
<mask id="mask1_8_3602" style="mask-type:luminance" maskUnits="userSpaceOnUse" x="268" y="-62" width="156" height="156">
<path d="M346 93.945C389.048 93.945 423.945 59.0478 423.945 16C423.945 -27.0478 389.048 -61.945 346 -61.945C302.952 -61.945 268.055 -27.0478 268.055 16C268.055 59.0478 302.952 93.945 346 93.945Z" fill="white"/>
</mask>
<g mask="url(#mask1_8_3602)">
<path d="M255.22 110.463C258.592 106.893 261.992 101.255 267.12 100.008C274.43 98.2234 277.32 106.213 281.655 110.237C288.058 116.187 295.963 111.653 302.423 108.395C314.153 102.473 331.748 102.7 336.055 117.717C339.172 128.568 340.532 149.705 356.88 146.56C367.958 144.407 370.027 130.24 372.945 121.372C375.042 115.053 376.147 108.31 379.32 102.36C383.145 95.22 393.855 87.995 398.615 98.5067C400.712 103.153 400.797 110.69 407.313 111.427C411.705 111.937 414.397 107.942 417.287 105.335C422.613 100.518 431.737 100.773 436.78 105.873" stroke="#F3F3F3" stroke-width="2" stroke-miterlimit="10"/>
<path d="M255.277 103.493C258.592 99.9233 261.935 94.37 266.978 93.0666C271.937 91.7916 274.742 95.0216 277.462 98.5066C278.765 100.178 280.068 101.85 281.485 103.125C287.917 108.792 295.652 104.287 302.027 100.972C306.532 98.62 311.887 97.175 317.043 97.175C325.175 97.1183 332.655 100.83 335.432 109.783C336.508 113.297 337.443 117.858 338.775 122.278C341.183 130.297 344.867 137.692 353.225 137.635C354.245 137.635 355.35 137.493 356.512 137.238C363.793 135.68 367.222 128.965 369.687 122.193C370.905 118.878 371.84 115.535 372.832 112.815C374.985 106.865 376.147 100.603 379.292 95.0783C380.652 92.7266 382.833 90.3466 385.327 88.7316C389.832 85.8416 395.272 85.3883 398.388 91.8199C400.343 95.8433 400.74 102.077 405.585 103.692C406.095 103.862 406.633 103.975 407.257 104.032C411.592 104.485 414.283 100.745 417.202 98.3083C422.528 93.8316 431.482 94.2566 436.497 98.9033" stroke="#F3F3F3" stroke-width="2" stroke-miterlimit="10"/>
<path d="M255.305 96.5233C258.563 92.9816 261.85 87.485 266.837 86.125C271.795 84.765 274.515 87.9666 277.207 91.48C278.51 93.18 279.87 94.795 281.315 96.0133C287.803 101.397 295.34 96.92 301.63 93.5766C306.078 91.1966 311.32 89.695 316.42 89.5816C324.523 89.4116 331.862 93.095 334.78 101.85C335.942 105.307 336.962 109.783 338.378 114.033C340.957 121.768 344.725 128.653 352.857 128.398C353.877 128.37 354.925 128.2 356.087 127.945C363.227 126.273 366.683 119.643 369.318 113.183C370.622 110.01 371.613 106.865 372.662 104.287C374.9 98.705 376.062 92.8966 379.178 87.825C380.51 85.6716 382.663 83.4333 385.128 82.0166C389.577 79.41 394.932 79.07 398.105 85.2183C400.088 89.0716 400.655 94.965 405.443 96.4383C405.953 96.58 406.492 96.6933 407.087 96.75C411.393 97.1466 414.085 93.6333 416.975 91.395C422.273 87.2583 431.057 87.8533 436.1 92.0183" stroke="#F3F3F3" stroke-width="2" stroke-miterlimit="10"/>
<path d="M255.362 89.5533C258.563 86.0116 261.793 80.6 266.695 79.1833C271.625 77.7666 274.26 80.94 276.952 84.4533C278.255 86.1533 279.672 87.74 281.145 88.9016C287.662 94.0016 295.057 89.5816 301.233 86.1533C305.625 83.745 310.782 82.1583 315.797 81.96C323.872 81.6483 331.097 85.36 334.157 93.8883C335.375 97.2883 336.508 101.652 338.01 105.76C340.758 113.212 344.583 119.587 352.545 119.105C353.537 119.048 354.585 118.878 355.718 118.595C362.745 116.81 366.23 110.293 369.007 104.117C370.367 101.057 371.443 98.11 372.52 95.73C374.843 90.545 376.005 85.19 379.093 80.5433C380.425 78.56 382.493 76.52 384.93 75.245C389.322 72.9216 394.592 72.695 397.822 78.5317C399.862 82.215 400.542 87.74 405.33 89.0717C405.84 89.2133 406.378 89.2983 406.973 89.355C411.223 89.7233 413.943 86.4366 416.833 84.3683C422.132 80.5716 430.745 81.3367 435.788 85.0483" stroke="#00EB42" stroke-width="2" stroke-miterlimit="10"/>
<path d="M255.418 82.5833C258.563 79.0416 261.737 73.715 266.553 72.27C271.483 70.7966 274.033 73.9133 276.725 77.455C278.028 79.155 279.473 80.7133 281.003 81.8183C287.548 86.635 294.773 82.2433 300.865 78.7866C305.172 76.3216 310.243 74.6783 315.23 74.395C323.248 73.9133 330.388 77.6816 333.562 86.0116C334.837 89.3833 336.083 93.6333 337.67 97.5716C340.588 104.74 344.47 110.605 352.262 109.925C353.225 109.84 354.273 109.642 355.378 109.33C362.263 107.432 365.777 101.028 368.723 95.1066C370.168 92.1883 371.302 89.4116 372.407 87.2016C374.815 82.385 376.005 77.5116 379.065 73.29C380.368 71.505 382.408 69.635 384.788 68.53C389.152 66.49 394.308 66.3766 397.595 71.9016C399.663 75.3866 400.513 80.6 405.273 81.79C405.783 81.9033 406.322 82.0166 406.888 82.045C411.082 82.3566 413.83 79.2966 416.72 77.4266C422.018 73.97 430.462 74.8766 435.477 78.1633" stroke="#F3F3F3" stroke-width="2" stroke-miterlimit="10"/>
<path d="M255.475 75.6133C258.563 72.1 261.708 66.8016 266.44 65.3283C271.37 63.77 273.807 66.8866 276.498 70.4283C277.802 72.1566 279.303 73.63 280.862 74.7066C287.435 79.24 294.49 74.8766 300.497 71.3633C304.747 68.87 309.705 67.17 314.635 66.7733C322.625 66.15 329.623 69.9466 332.967 78.05C334.327 81.365 335.63 85.5016 337.302 89.2983C340.39 96.1833 344.357 101.51 351.95 100.66C352.913 100.547 353.933 100.32 355.01 100.008C361.753 97.9966 365.323 91.6783 368.412 86.0683C369.942 83.2916 371.132 80.685 372.293 78.645C374.787 74.1966 375.977 69.7766 379.008 66.0083C380.283 64.4216 382.295 62.7216 384.647 61.7583C388.953 60.0016 394.025 60.03 397.368 65.2433C399.493 68.5583 400.485 73.4033 405.188 74.4516C405.67 74.565 406.208 74.65 406.803 74.6783C410.94 74.9616 413.688 72.1283 416.578 70.4283C421.877 67.3116 430.15 68.3883 435.165 71.1933" stroke="#00EB42" stroke-width="2" stroke-miterlimit="10"/>
<path d="M255.503 68.6433C258.535 65.13 261.623 59.9167 266.27 58.3867C271.2 56.7717 273.552 59.8317 276.243 63.4017C277.547 65.13 279.105 66.575 280.663 67.595C287.265 71.8733 294.15 67.5383 300.1 63.94C304.293 61.4183 309.167 59.6333 314.012 59.1517C321.973 58.3867 328.858 62.2117 332.315 70.1167C333.732 73.375 335.148 77.4267 336.905 81.0533C340.135 87.655 344.215 92.4717 351.61 91.4233C352.545 91.2817 353.537 91.0267 354.613 90.6867C361.215 88.5617 364.813 82.3567 368.072 77.0017C369.687 74.3667 370.962 71.9583 372.123 70.0883C374.673 66.0367 375.892 62.07 378.923 58.7267C380.198 57.31 382.153 55.78 384.448 55.015C388.727 53.5417 393.685 53.6833 397.085 58.585C399.267 61.73 400.372 66.235 405.075 67.1417C405.557 67.2267 406.095 67.3117 406.662 67.34C410.77 67.5667 413.518 64.96 416.408 63.43C421.707 60.6533 429.81 61.9 434.825 64.2517" stroke="#F3F3F3" stroke-width="2" stroke-miterlimit="10"/>
<path d="M255.56 61.6733C258.535 58.16 261.567 53.0316 266.157 51.445C271.087 49.745 273.353 52.805 276.017 56.375C277.292 58.1033 278.935 59.52 280.522 60.4833C287.123 64.4783 293.895 60.1716 299.732 56.545C303.868 53.9666 308.628 52.125 313.417 51.5866C321.322 50.68 328.122 54.505 331.692 62.2116C333.193 65.4133 334.667 69.3516 336.537 72.8366C339.937 79.1833 344.073 83.4333 351.298 82.1866C352.233 82.0166 353.197 81.7333 354.245 81.3933C360.705 79.155 364.36 73.0633 367.76 67.9916C369.432 65.47 370.792 63.26 371.982 61.56C374.617 57.8766 375.863 54.3633 378.838 51.4733C380.085 50.255 382.012 48.895 384.25 48.2716C388.5 47.0816 393.373 47.3366 396.802 51.9266C399.012 54.9016 400.287 59.0383 404.962 59.8033C405.443 59.8883 405.982 59.945 406.548 59.9733C410.6 60.1716 413.377 57.7916 416.267 56.4316C421.565 53.9666 429.498 55.3833 434.485 57.31" stroke="#00EB42" stroke-width="2" stroke-miterlimit="10"/>
<path d="M255.617 54.7317C258.535 51.2467 261.51 46.1467 266.015 44.5317C270.945 42.775 273.098 45.7783 275.762 49.3767C277.037 51.1333 278.708 52.4933 280.352 53.4C286.982 57.1117 293.583 52.8333 299.335 49.15C303.387 46.5433 308.062 44.6167 312.793 43.9933C320.67 42.9166 327.357 46.7983 331.068 54.2783C332.627 57.4517 334.213 61.2767 336.168 64.5917C339.738 70.655 343.96 74.395 350.987 72.95C351.893 72.7517 352.857 72.4683 353.877 72.0717C360.223 69.72 363.878 63.7417 367.448 58.925C369.205 56.545 370.622 54.505 371.868 53.0033C374.56 49.7167 375.835 46.6567 378.782 44.1917C380.028 43.1433 381.898 41.9817 384.108 41.5283C388.33 40.6217 393.09 40.99 396.575 45.2967C398.842 48.1017 400.258 51.8983 404.905 52.5217C405.387 52.5783 405.925 52.635 406.492 52.6633C410.487 52.805 413.263 50.6517 416.153 49.49C421.423 47.365 429.215 48.9517 434.202 50.3967" stroke="#F3F3F3" stroke-width="2" stroke-miterlimit="10"/>
<path d="M255.673 47.7616C258.535 44.2766 261.453 39.2616 265.902 37.6183C270.832 35.7766 272.9 38.78 275.563 42.3783C276.838 44.135 278.567 45.4666 280.238 46.345C286.868 49.8016 293.328 45.5516 298.995 41.7833C302.99 39.1483 307.58 37.1366 312.255 36.4283C320.103 35.21 326.677 39.12 330.502 46.4016C332.145 49.5183 333.817 53.2583 335.857 56.4033C339.568 62.1833 343.875 65.385 350.732 63.77C351.638 63.5716 352.545 63.2316 353.537 62.835C359.742 60.37 363.453 54.4766 367.165 49.9716C369.007 47.7333 370.48 45.8633 371.755 44.5316C374.532 41.6416 375.835 39.0066 378.753 36.995C379.972 36.145 381.813 35.1533 383.967 34.8416C388.16 34.2183 392.835 34.7283 396.348 38.695C398.672 41.33 400.23 44.7583 404.82 45.2683C405.302 45.325 405.812 45.3533 406.378 45.3816C410.317 45.495 413.122 43.5683 416.012 42.5766C421.282 40.7916 428.903 42.5483 433.862 43.54" stroke="#00EB42" stroke-width="2" stroke-miterlimit="10"/>
<path d="M255.702 40.7917C258.507 37.335 261.368 32.3483 265.732 30.6767C270.662 28.7783 272.617 31.725 275.28 35.3517C276.555 37.1083 278.34 38.4117 280.04 39.2333C286.67 42.435 293.017 38.185 298.57 34.3883C302.508 31.6967 306.985 29.6283 311.603 28.835C319.423 27.475 325.912 31.4133 329.822 38.4683C331.522 41.5283 333.307 45.155 335.403 48.1583C339.285 53.655 343.677 56.3183 350.335 54.5333C351.213 54.3067 352.12 53.9383 353.083 53.5133C359.147 50.935 362.887 45.155 366.768 40.9333C368.695 38.8367 370.225 37.165 371.557 36.0033C374.39 33.4817 375.75 31.3 378.612 29.7417C379.83 29.09 381.643 27.9 383.74 28.1267C387.905 28.5517 392.495 28.41 396.037 32.0933C398.417 34.5583 400.088 37.6467 404.678 37.9867C405.16 38.015 405.67 38.0433 406.237 38.0433C410.147 38.1 412.952 36.4 415.842 35.6067C421.112 34.1617 428.563 36.06 433.522 36.6267" stroke="#F3F3F3" stroke-width="2" stroke-miterlimit="10"/>
<path d="M255.758 33.8217C258.507 30.365 261.312 25.4633 265.618 23.735C270.548 21.7517 272.418 24.6983 275.053 28.325C276.328 30.11 278.142 31.3567 279.898 32.1217C286.528 35.04 292.733 30.8183 298.202 26.965C302.083 24.245 306.447 22.0917 311.008 21.2133C318.772 19.6833 325.175 23.65 329.227 30.535C331.012 33.5383 332.853 37.08 335.063 39.9133C339.115 45.1267 343.592 47.2517 350.052 45.2683C350.902 45.0133 351.808 44.6167 352.743 44.1917C358.665 41.5 362.462 35.8333 366.485 31.8667C368.468 29.9117 370.083 28.41 371.443 27.4183C374.362 25.2933 375.75 23.5367 378.555 22.4317C379.773 21.95 381.558 20.9583 383.57 21.3267C387.678 22.0917 392.212 22.0067 395.782 25.3783C398.218 27.6733 400.032 30.3933 404.593 30.62C405.075 30.6483 405.585 30.6483 406.123 30.6483C409.977 30.6767 412.782 29.2033 415.672 28.58C420.913 27.475 428.223 29.5433 433.182 29.6283" stroke="#00EB42" stroke-width="2" stroke-miterlimit="10"/>
<path d="M255.815 26.8516C258.507 23.395 261.255 18.55 265.477 16.7933C270.407 14.725 272.163 17.6433 274.827 21.2983C276.102 23.0833 277.972 24.3016 279.757 25.01C286.387 27.6733 292.45 23.4516 297.862 19.57C301.658 16.8216 305.965 14.6116 310.442 13.62C318.177 11.9483 324.467 15.9433 328.632 22.6016C330.473 25.5766 332.428 28.9766 334.723 31.6683C338.945 36.5983 343.478 38.185 349.74 36.0316C350.59 35.7483 351.468 35.3233 352.375 34.8983C358.155 32.0933 361.98 26.54 366.173 22.8566C368.242 21.015 369.913 19.74 371.302 18.89C374.277 17.1616 375.722 15.8583 378.498 15.1783C379.717 14.895 381.502 14.0733 383.4 14.5833C387.423 15.6883 391.928 15.6883 395.527 18.72C398.02 20.845 399.975 23.225 404.48 23.2816C404.962 23.2816 405.472 23.2816 406.01 23.2816C409.807 23.2533 412.64 22.0066 415.53 21.5816C420.772 20.7883 427.912 23.055 432.842 22.6866" stroke="#F3F3F3" stroke-width="2" stroke-miterlimit="10"/>
<path d="M255.843 19.8817C258.478 16.4533 261.17 11.665 265.335 9.85165C270.265 7.72665 271.937 10.6167 274.572 14.2717C275.847 16.0567 277.745 17.2467 279.558 17.8983C286.188 20.335 292.11 16.1133 297.437 12.1467C301.177 9.36998 305.37 7.07499 309.818 5.99832C317.525 4.15666 323.73 8.20832 328.008 14.64C329.935 17.5583 331.975 20.8733 334.355 23.395C338.718 28.0417 343.365 29.09 349.428 26.7667C350.25 26.455 351.1 26.03 352.007 25.5483C357.673 22.63 361.527 17.1617 365.862 13.7617C368.015 12.0617 369.715 10.9567 371.188 10.305C374.22 8.94498 375.722 8.09498 378.442 7.86832C379.66 7.75498 381.332 7.52832 383.258 7.81165C387.423 8.40665 391.673 9.31332 395.3 12.0617C397.85 13.9883 399.947 16.0283 404.423 15.9717C404.905 15.9717 405.387 15.9433 405.925 15.9433C409.665 15.8583 412.498 14.8383 415.417 14.6117C420.63 14.1583 427.628 16.5667 432.558 15.745" stroke="#00EB42" stroke-width="2" stroke-miterlimit="10"/>
<path d="M255.9 12.9117C258.478 9.48332 261.113 4.75166 265.193 2.90999C270.123 0.69999 271.71 3.56166 274.317 7.24499C275.592 9.05832 277.547 10.1917 279.388 10.7867C286.018 12.9683 291.827 8.74666 297.04 4.72333C300.723 1.88999 304.803 -0.490009 309.195 -1.62334C316.845 -3.60668 322.965 0.444993 327.357 6.70666C329.368 9.56833 331.465 12.77 333.958 15.15C338.492 19.5417 343.223 20.0233 349.088 17.53C349.91 17.19 350.732 16.7367 351.61 16.255C357.135 13.2233 361.045 7.86832 365.522 4.75165C367.76 3.19332 369.517 2.25832 371.018 1.77666C374.078 0.813324 375.693 0.416655 378.328 0.614989C379.547 0.699989 381.19 0.671657 383.032 1.06832C387.197 2.00332 391.333 2.96666 394.96 5.40332C397.567 7.15999 399.777 8.83166 404.253 8.63332C404.735 8.60499 405.217 8.60499 405.755 8.57665C409.467 8.46332 412.3 7.66999 415.19 7.61332C420.403 7.49999 427.232 10.0783 432.162 8.80332" stroke="#F3F3F3" stroke-width="2" stroke-miterlimit="10"/>
<path d="M255.957 5.94166C258.478 2.54166 261.057 -2.13335 265.08 -4.00335C270.01 -6.29835 271.483 -3.43668 274.118 0.246654C275.393 2.05999 277.377 3.16499 279.275 3.70332C285.905 5.62999 291.572 1.40832 296.7 -2.64335C300.327 -5.50501 304.322 -7.97001 308.628 -9.18834C316.25 -11.3417 322.285 -7.23334 326.762 -1.19834C328.858 1.60666 331.04 4.72332 333.59 6.93332C338.293 11.0417 343.082 10.985 348.777 8.29332C349.57 7.92499 350.392 7.44332 351.242 6.93332C356.625 3.78832 360.563 -1.45334 365.21 -4.31501C367.533 -5.73168 369.347 -6.49668 370.877 -6.78001C373.993 -7.37501 375.693 -7.26168 378.272 -6.66668C379.49 -6.38334 381.077 -6.21334 382.862 -5.67501C387.027 -4.42834 391.078 -3.38001 394.705 -1.25501C397.397 0.331657 399.72 1.66332 404.168 1.32332C404.65 1.29499 405.132 1.26665 405.642 1.23832C409.297 1.06832 412.158 0.501655 415.048 0.614988C420.262 0.813321 426.92 3.58999 431.822 1.86166" stroke="#00EB42" stroke-width="2" stroke-miterlimit="10"/>
<path d="M256.013 -1.00003C258.478 -4.40003 261 -9.01836 264.938 -10.9167C269.868 -13.2967 271.257 -10.4634 273.863 -6.75169C275.138 -4.93836 277.178 -3.86169 279.105 -3.38002C285.735 -1.68002 291.26 -5.90169 296.303 -10.0384C299.845 -12.9284 303.755 -15.4784 308.005 -16.7534C315.598 -19.0767 321.548 -14.94 326.138 -9.07503C328.292 -6.32669 330.587 -3.32336 333.222 -1.25502C338.095 2.56998 342.968 1.97497 348.465 -0.886694C349.258 -1.28336 350.023 -1.79336 350.873 -2.30336C356.115 -5.56169 360.11 -10.69 364.898 -13.2684C367.307 -14.5717 369.148 -15.1384 370.763 -15.2517C373.937 -15.4784 375.693 -14.8834 378.215 -13.8634C379.433 -13.3817 380.992 -13.0134 382.72 -12.3617C386.885 -10.7467 390.852 -9.69836 394.478 -7.82836C397.227 -6.41169 399.692 -5.44836 404.083 -5.93002C404.565 -5.98669 405.047 -6.01503 405.557 -6.04336C409.155 -6.24169 412.017 -6.58169 414.935 -6.29836C420.12 -5.76002 426.637 -2.84169 431.538 -5.02336" stroke="#F3F3F3" stroke-width="2" stroke-miterlimit="10"/>
</g>
</g>
<defs>
<filter id="filter0_f_8_3602" x="193" y="60" width="289" height="243" filterUnits="userSpaceOnUse" color-interpolation-filters="sRGB">
<feFlood flood-opacity="0" result="BackgroundImageFix"/>
<feBlend mode="normal" in="SourceGraphic" in2="BackgroundImageFix" result="shape"/>
<feGaussianBlur stdDeviation="27" result="effect1_foregroundBlur_8_3602"/>
</filter>
<filter id="filter1_f_8_3602" x="-145" y="-113" width="289" height="243" filterUnits="userSpaceOnUse" color-interpolation-filters="sRGB">
<feFlood flood-opacity="0" result="BackgroundImageFix"/>
<feBlend mode="normal" in="SourceGraphic" in2="BackgroundImageFix" result="shape"/>
<feGaussianBlur stdDeviation="27" result="effect1_foregroundBlur_8_3602"/>
</filter>
<linearGradient id="paint0_linear_8_3602" x1="-2.6077e-07" y1="114.467" x2="195.622" y2="140.16" gradientUnits="userSpaceOnUse">
<stop stop-color="#6F44D8"/>
<stop offset="1" stop-color="#0096EB"/>
</linearGradient>
<clipPath id="clip0_8_3602">
<rect width="375" height="202" fill="white"/>
</clipPath>
</defs>
</svg>
