<svg width="94" height="27" viewBox="0 0 94 27" fill="none" xmlns="http://www.w3.org/2000/svg">
<path d="M15.1784 18.7808C14.0856 18.2141 12.2642 17.8903 9.79515 17.8498H8.5404H7.56898C6.71898 17.8498 6.03089 17.7689 5.58566 17.6879C5.09995 17.5665 4.81662 17.4451 4.69519 17.3236C4.57377 17.2022 4.49282 17.0403 4.49282 16.7974C4.49282 16.5951 4.53329 16.3927 4.65472 16.2713C4.77614 16.1498 5.09995 16.0284 5.62614 15.907C6.15232 15.7855 6.79994 15.7451 7.81183 15.7451H8.41897C9.06658 15.7451 9.47134 15.7855 9.95705 15.8665C10.4428 15.9474 10.807 16.0284 11.0904 16.1094C11.3332 16.1903 11.5356 16.3522 11.6975 16.4736C11.8594 16.6355 11.9404 16.757 11.9808 16.8379C12.0213 16.9189 12.0618 17.0403 12.0618 17.1617H16.3927V16.9998C16.3927 16.5951 16.3118 16.2308 16.1903 15.907C16.0689 15.5427 15.826 15.2189 15.4618 14.8546C15.0975 14.4903 14.6522 14.207 14.0856 13.9641C13.5189 13.7213 12.7904 13.5189 11.8594 13.357C10.9285 13.1951 9.83562 13.1141 8.62135 13.1141H7.3666C6.1928 13.1141 5.1809 13.1951 4.29044 13.3165C3.39997 13.4784 2.71188 13.6403 2.18569 13.8832C1.65951 14.126 1.25475 14.4094 0.930943 14.7332C0.607137 15.057 0.404758 15.4213 0.283331 15.7451C0.161904 16.0689 0.121427 16.4332 0.121427 16.8379V16.9998C0.121427 19.2665 2.30712 20.4807 6.63803 20.6022L7.60945 20.6426L8.90468 20.6831C9.8761 20.7236 10.6451 20.7641 11.1713 20.8855C11.6975 21.0069 12.0213 21.1284 12.1832 21.2903C12.3451 21.4522 12.3856 21.6545 12.3856 21.8974C12.3856 22.0998 12.3451 22.2617 12.2642 22.3831C12.1832 22.5045 12.0213 22.6664 11.7785 22.7879C11.5356 22.9093 11.1308 23.0307 10.5642 23.1117C9.99753 23.1926 9.67372 23.2331 8.82373 23.2331H7.85231C5.30233 23.2331 4.37139 22.5855 4.29044 21.2903H0V21.4522C0 21.8164 0.0404755 22.1807 0.121427 22.545C0.202379 22.8688 0.404758 23.2736 0.728564 23.6783C1.05237 24.0831 1.45713 24.4474 2.02379 24.7712C2.54998 25.0545 3.31902 25.3378 4.33091 25.5402C5.30233 25.7426 6.47613 25.864 7.81183 25.864H9.06658C10.3618 25.864 11.4951 25.7831 12.4261 25.6212C13.3975 25.4593 14.1261 25.2569 14.6927 25.014C15.2594 24.7712 15.7046 24.4474 16.0284 24.0831C16.3522 23.7188 16.5951 23.3545 16.676 22.9902C16.7975 22.626 16.8379 22.2212 16.8379 21.776V21.5331C16.8379 20.2379 16.2713 19.3474 15.1784 18.7808ZM50.1091 18.9427C50.1091 19.3879 50.0281 19.7927 49.9067 20.1569C49.7852 20.5212 49.5829 20.8855 49.2591 21.2498C48.9757 21.6141 48.49 21.8974 47.8829 22.0998C47.2757 22.3022 46.5472 22.4236 45.6972 22.4236C44.8472 22.4236 44.1186 22.3022 43.5115 22.0998C42.9044 21.8974 42.4591 21.6141 42.1353 21.2498C41.852 20.8855 41.6091 20.5212 41.4877 20.1569C41.3663 19.7927 41.2853 19.3879 41.2853 18.9427V13.276H37.1163V19.145C37.1163 19.5093 37.1568 19.8736 37.1973 20.2379C37.2377 20.6022 37.3592 21.0069 37.5211 21.4117C37.683 21.8569 37.8854 22.2617 38.1282 22.626C38.3711 22.9902 38.7353 23.395 39.1401 23.7593C39.5853 24.1236 40.071 24.4474 40.6377 24.6902C41.2044 24.9331 41.8925 25.1759 42.702 25.3378C43.5115 25.4997 44.402 25.5807 45.4139 25.5807H46.0615C47.3567 25.5807 48.49 25.4188 49.5019 25.1355C50.5138 24.8117 51.2828 24.4474 51.8495 24.0021C52.4162 23.5569 52.9019 23.0307 53.2662 22.4236C53.6304 21.8164 53.8733 21.2498 53.9947 20.7236C54.1161 20.1974 54.1971 19.6712 54.1971 19.1855V13.3165H50.0281V18.9427H50.1091ZM93.8634 17.7284C93.742 17.2832 93.5801 16.8379 93.2967 16.3927C93.0539 15.9474 92.6896 15.5427 92.2039 15.1784C91.7182 14.8141 91.1515 14.4903 90.4634 14.207C89.7753 13.9237 88.9658 13.6808 87.9539 13.5594C86.942 13.3975 85.8087 13.3165 84.5944 13.3165H75.7302V25.5807H84.5944C86.092 25.5807 87.4277 25.4593 88.5611 25.2164C89.6944 24.9736 90.6253 24.6497 91.2729 24.245C91.961 23.8807 92.4872 23.395 92.9324 22.8283C93.3777 22.2617 93.661 21.7355 93.7824 21.2498C93.9443 20.7236 93.9848 20.1974 93.9848 19.6307V19.145C94.0253 18.6189 93.9848 18.1736 93.8634 17.7284ZM89.6539 19.4688C89.6539 21.5736 87.873 22.626 84.2706 22.626H79.9397V16.2308H84.2706C87.8325 16.2308 89.6539 17.2831 89.6539 19.3879V19.4688ZM69.5374 21.0474L61.0375 13.357H56.3423V25.5807H60.4709V17.4855L69.5374 25.5807H73.666V13.357H69.5374V21.0474ZM22.626 14.1665H22.545C21.8165 14.1665 21.2093 14.7737 21.2093 15.5022V23.4355C21.2093 24.164 21.8165 24.7712 22.545 24.7712H22.626C23.3545 24.7712 23.9617 24.164 23.9617 23.4355V15.5022C24.0022 14.7737 23.3545 14.1665 22.626 14.1665ZM27.2807 12.2642C26.5521 12.2642 25.9045 12.8713 25.9045 13.5999V25.3378C25.9045 26.0664 26.5117 26.6735 27.2402 26.6735C27.9688 26.6735 28.5759 26.0664 28.5759 25.3378V13.5999C28.6569 12.8713 28.0497 12.2642 27.2807 12.2642ZM32.1378 14.1665C31.4092 14.1665 30.7616 14.7737 30.7616 15.5022V23.4355C30.7616 24.164 31.3688 24.7712 32.0973 24.7712C32.8259 24.7712 33.433 24.164 33.433 23.4355V15.5022C33.4735 14.7737 32.8664 14.1665 32.1378 14.1665Z" fill="url(#paint0_linear_397_85)"/>
<path d="M3.68349 0.0404599H0.72876V8.74276H10.2811V6.59754H3.68349V0.0404599ZM11.0906 8.70228H13.9239V2.42853H11.0906V8.70228ZM16.5143 1.69997V2.42853H15.2191V4.16899H16.5143V8.70228H19.3072V4.16899H20.9667V2.42853H19.3072V2.06425C19.3072 1.86187 19.3476 1.74044 19.4286 1.65949C19.5095 1.57854 19.631 1.53807 19.8738 1.53807H20.9667V-1.52588e-05H18.9024C17.2834 0.0404605 16.5143 0.566645 16.5143 1.69997ZM11.0906 1.8214H13.9239V0.0404599H11.0906V1.8214ZM32.4618 5.54517C32.4618 3.27852 30.8832 2.1452 27.7261 2.1452H26.9571C26.0666 2.1452 25.2976 2.22615 24.65 2.38806C24.0023 2.54996 23.5166 2.79281 23.1928 3.11662C22.869 3.44043 22.5857 3.76423 22.4643 4.12852C22.3024 4.4928 22.2214 4.89756 22.2214 5.30232V5.54517C22.2214 5.9904 22.3024 6.39516 22.4643 6.75944C22.6262 7.12373 22.9095 7.44753 23.2333 7.77134C23.5976 8.09515 24.0833 8.338 24.7309 8.4999C25.3785 8.66181 26.1476 8.74276 27.038 8.74276H27.7666C28.5356 8.74276 29.2237 8.70228 29.8309 8.58085C30.438 8.45943 30.8832 8.338 31.207 8.1761C31.5308 8.01419 31.7737 7.81181 31.9761 7.56896C32.1785 7.3261 32.2999 7.12373 32.3808 6.96182C32.4213 6.75944 32.4618 6.59754 32.4618 6.39516H29.6285C29.6285 6.43564 29.588 6.47611 29.5475 6.55706C29.5071 6.59754 29.4666 6.67849 29.3452 6.75944C29.2642 6.84039 29.1428 6.92135 28.9809 6.96182C28.819 7.04277 28.6166 7.08325 28.3333 7.12373C28.0499 7.16421 27.7261 7.20468 27.4023 7.20468C25.9857 7.20468 25.1761 6.79992 24.9738 5.99041H32.4618V5.54517ZM25.0547 4.69518C25.2976 4.00709 26.0261 3.64281 27.3214 3.64281C28.6571 3.64281 29.4261 4.00709 29.6285 4.69518H25.0547Z" fill="#191919"/>
<defs>
<linearGradient id="paint0_linear_397_85" x1="-0.0181332" y1="19.4744" x2="94.0286" y2="19.4744" gradientUnits="userSpaceOnUse">
<stop stop-color="#6F44D8"/>
<stop offset="1" stop-color="#0096EB"/>
</linearGradient>
</defs>
</svg>
