<svg width="16" height="17" viewBox="0 0 16 17" fill="none" xmlns="http://www.w3.org/2000/svg">
<path d="M16 8.14438V8.48375C16 12.6427 12.9382 16.0736 8.98497 16.5663C8.66249 16.608 8.33359 16.6281 8.00025 16.6281C7.57505 16.6281 7.15874 16.595 6.75181 16.5301C2.92651 15.9197 0 12.5497 0 8.48375V8.14438C0 3.6471 3.58184 0 7.99975 0C10.2092 0 12.2093 0.91203 13.6567 2.38565C15.1052 3.85978 16 5.89599 16 8.14438Z" fill="#191919"/>
<path d="M8.98508 8.07492V9.36352H10.9076L10.598 11.5068H8.98508V16.5667C8.6626 16.6085 8.33371 16.6286 8.00036 16.6286C7.57517 16.6286 7.15885 16.5954 6.75193 16.5305V11.5068H4.91138L4.94792 9.36352H6.75242V7.50981C6.75242 6.13523 7.96727 4.5138 10.9081 5.18801V6.98793L10.0157 7.00453C9.39942 7.01709 8.98508 7.44696 8.98508 8.07492Z" fill="#F3F3F3"/>
</svg>
