<svg width="16" height="17" viewBox="0 0 16 17" fill="none" xmlns="http://www.w3.org/2000/svg">
<path d="M8 16.6286C3.58173 16.6286 0 12.9821 0 8.484V8.14464C0 3.64648 3.58173 0 8 0C12.4183 0 16 3.64648 16 8.14464V8.484C16 12.9821 12.4183 16.6286 8 16.6286Z" fill="#191919"/>
<path d="M7.99997 6.83399C8.80293 6.83399 9.45429 7.49662 9.45429 8.3146C9.45429 9.13259 8.80343 9.79522 7.99997 9.79522C7.19651 9.79522 6.54565 9.13259 6.54565 8.3146C6.54565 7.49662 7.19701 6.83399 7.99997 6.83399ZM7.99997 6.0155C6.75503 6.0155 5.7417 7.04665 5.7417 8.3146C5.7417 9.58255 6.75454 10.6137 7.99997 10.6137C9.24491 10.6137 10.2582 9.58255 10.2582 8.3146C10.2582 7.04665 9.2454 6.0155 7.99997 6.0155Z" fill="#F3F3F3"/>
<path d="M9.92541 4.68629C10.8306 4.68629 11.5639 5.43338 11.5639 6.35442V10.2744C11.5639 11.196 10.8301 11.9426 9.92541 11.9426H6.07504C5.16985 11.9426 4.43652 11.1955 4.43652 10.2744V6.35442C4.43652 5.43287 5.17035 4.68629 6.07504 4.68629H9.92541ZM9.92541 3.8678H6.07504C4.72837 3.8678 3.63257 4.98341 3.63257 6.35442V10.2744C3.63257 11.6454 4.72837 12.761 6.07504 12.761H9.92541C11.2721 12.761 12.3679 11.6454 12.3679 10.2744V6.35442C12.3679 4.98341 11.2721 3.8678 9.92541 3.8678Z" fill="#F3F3F3"/>
<path d="M10.3756 6.43783C10.6696 6.43783 10.908 6.19518 10.908 5.89585C10.908 5.59653 10.6696 5.35388 10.3756 5.35388C10.0816 5.35388 9.84326 5.59653 9.84326 5.89585C9.84326 6.19518 10.0816 6.43783 10.3756 6.43783Z" fill="#F3F3F3"/>
</svg>
