<svg width="16" height="17" viewBox="0 0 16 17" fill="none" xmlns="http://www.w3.org/2000/svg">
<path d="M8 16.6286C3.58173 16.6286 0 12.9821 0 8.484V8.14464C0 3.64648 3.58173 0 8 0C12.4183 0 16 3.64648 16 8.14464V8.484C16 12.9821 12.4183 16.6286 8 16.6286Z" fill="#191919"/>
<path d="M5.33224 6.16111C5.82587 5.95295 6.06028 5.3768 5.85581 4.87425C5.65134 4.3717 5.08542 4.13305 4.59179 4.34122C4.09816 4.54938 3.86376 5.12554 4.06823 5.62809C4.2727 6.13064 4.83862 6.36928 5.33224 6.16111Z" fill="#F3F3F3"/>
<path d="M5.77291 6.93201H4.14575V12.3623H5.77291V6.93201Z" fill="#F3F3F3"/>
<path d="M8.39582 7.68467V6.93204H6.78198V12.3623H8.39582V10.2165C8.39582 9.28695 8.51779 8.84252 8.73804 8.59918C8.74248 8.59466 8.74643 8.58963 8.75088 8.5851C9.08619 8.21457 9.71285 8.15676 10.0284 8.52276C10.2022 8.72386 10.2882 9.00893 10.2872 9.35884V12.3623H12.0096V9.50163C12.0096 7.44234 11.2556 6.87825 10.2793 6.80183C10.2506 6.79982 10.2225 6.79731 10.1943 6.7953C9.63977 6.75105 8.86792 6.86417 8.39582 7.68467Z" fill="#F3F3F3"/>
</svg>
