<svg width="16" height="17" viewBox="0 0 16 17" fill="none" xmlns="http://www.w3.org/2000/svg">
<path d="M8 16.6286C3.58173 16.6286 0 12.9821 0 8.484V8.14464C0 3.64648 3.58173 0 8 0C12.4183 0 16 3.64648 16 8.14464V8.484C15.9995 12.9821 12.4178 16.6286 8 16.6286Z" fill="#191919"/>
<path d="M11.3851 6.00536C10.9589 5.91989 10.3871 5.65494 10.0315 5.09236C9.84485 4.79824 9.71694 4.42269 9.70064 3.94859C9.59546 3.94808 9.48978 3.94859 9.3846 3.94859C8.99299 3.94859 8.6004 3.9511 8.20879 3.94859C8.20879 4.01445 8.20879 4.08131 8.20879 4.14717C8.20879 4.14717 8.20878 4.14717 8.20829 4.14717C8.20977 4.58809 8.20929 5.03102 8.20879 5.47445C8.20682 6.51364 8.20138 7.55686 8.1999 8.59606C8.19891 9.03194 8.19892 9.46633 8.19941 9.8997C8.19941 10.2612 8.05274 10.6116 7.78113 10.8429C7.56829 11.0234 7.29572 11.1309 6.99745 11.1309C6.52831 11.1309 6.1209 10.862 5.91448 10.4678C5.82312 10.2934 5.77127 10.0943 5.77127 9.88261C5.77127 9.19283 6.32041 8.63427 6.99745 8.63427C7.1209 8.63427 7.2409 8.65287 7.35349 8.68806V7.1079C7.23695 7.09282 7.11794 7.08427 6.99745 7.08427C6.99399 7.08427 6.99102 7.08478 6.98855 7.08478C5.47398 7.0893 4.2488 8.34066 4.2488 9.88311C4.2488 9.91831 4.24979 9.9535 4.25077 9.98869C4.24979 10.0199 4.24829 10.051 4.24829 10.0822C4.24829 10.1224 4.24929 10.1626 4.25077 10.2029C4.29621 11.2858 5.02903 12.2199 6.04878 12.5321C6.39989 12.6397 6.74016 12.6814 6.99745 12.6814C8.40288 12.6814 9.5609 11.6071 9.72584 10.2215C9.73374 10.1566 9.7362 10.0913 9.73669 10.0259C9.74657 9.02793 9.76138 7.97214 9.77076 6.97819C10.7559 7.52469 11.3925 7.53474 11.7505 7.51463C11.754 7.02193 11.7471 6.52873 11.7505 6.03603C11.6532 6.04256 11.5268 6.03402 11.3851 6.00536Z" fill="#F3F3F3"/>
</svg>
