<svg width="16" height="17" viewBox="0 0 16 17" fill="none" xmlns="http://www.w3.org/2000/svg">
<path d="M8 16.6286C3.58173 16.6286 0 12.9821 0 8.484V8.14464C0 3.64648 3.58173 0 8 0C12.4183 0 16 3.64648 16 8.14464V8.484C15.9995 12.9821 12.4178 16.6286 8 16.6286Z" fill="#191919"/>
<path d="M11.5197 6.1965C11.9276 5.92652 12.1202 5.76011 12.2747 5.19752C12.2747 5.19752 11.5335 5.62839 11.1399 5.62839C11.134 5.62839 11.1271 5.62939 11.1207 5.62989C10.7952 5.27997 10.335 5.06128 9.82436 5.06128C8.83818 5.06128 8.03918 5.87524 8.03918 6.87874C8.03918 7.00745 8.05252 7.13364 8.07771 7.2548C8.07079 7.25832 8.06387 7.26234 8.05745 7.26586C6.10585 7.35133 4.43028 5.38958 4.43028 5.38958C3.82732 6.66004 4.5014 7.45741 4.9414 7.84554C4.70486 7.81336 4.4535 7.77113 4.17893 7.63237C4.17893 8.03307 4.25648 8.9883 5.56117 9.42319C5.32018 9.48553 5.07474 9.45285 4.79918 9.44933C4.79918 9.44933 4.99178 10.6026 6.42438 10.7107C5.7666 11.2266 5.05893 11.5292 3.85498 11.4654C4.79325 12.0169 6.57252 12.8595 8.77845 11.8022L9.14732 11.586C10.5982 10.7359 11.5231 9.19192 11.6021 7.48959L11.6318 6.84455C11.9779 6.69624 12.3844 6.17589 12.5098 5.96071C12.1543 6.08439 11.9103 6.15075 11.5197 6.1965Z" fill="#F3F3F3"/>
</svg>
