<svg width="16" height="17" viewBox="0 0 16 17" fill="none" xmlns="http://www.w3.org/2000/svg">
<path d="M8 16.6286C3.58173 16.6286 0 12.9821 0 8.484V8.14464C0 3.64648 3.58173 0 8 0C12.4183 0 16 3.64648 16 8.14464V8.484C16 12.9821 12.4183 16.6286 8 16.6286Z" fill="#191919"/>
<path d="M12.6785 6.87677C12.6598 6.74656 12.638 6.61584 12.6133 6.48664C12.5975 6.39966 12.5798 6.31369 12.561 6.22721C12.5487 6.1699 12.5329 6.11309 12.5141 6.05879C12.5037 6.02913 12.4924 6.00047 12.4805 5.97282C12.3966 5.77574 12.2696 5.60782 12.1111 5.47258C11.8884 5.28304 11.605 5.15484 11.2899 5.11261C9.12447 4.82453 6.98717 4.89341 4.71014 5.11261C4.64199 5.11965 4.57583 5.13171 4.51212 5.14729C4.44249 5.16489 4.37581 5.18802 4.31211 5.21517C4.30618 5.21718 4.30125 5.21969 4.29631 5.2222C4.14273 5.28555 4.00398 5.36901 3.88348 5.47107C3.73188 5.59978 3.60988 5.75764 3.52741 5.94517C3.51951 5.96176 3.5121 5.97936 3.50568 5.99645C3.49976 6.01103 3.49483 6.0246 3.48989 6.03868L3.47902 6.07035L3.43904 6.21766C3.42027 6.30363 3.40298 6.39011 3.38669 6.47709C3.362 6.60629 3.34025 6.73651 3.32149 6.86722C3.26322 7.26189 3.22914 7.65856 3.21976 8.05724C3.21828 8.09445 3.2178 8.13215 3.2178 8.16986C3.21632 8.21662 3.21631 8.26287 3.21631 8.30963V8.31968C3.2168 8.36644 3.22371 8.49414 3.32149 9.75204C3.34025 9.88225 3.362 10.013 3.38669 10.1422C3.40249 10.2291 3.42027 10.3151 3.43904 10.4016C3.45138 10.4589 3.46717 10.5157 3.48594 10.57C3.49631 10.5997 3.50767 10.6283 3.51953 10.656C3.60348 10.8531 3.73039 11.021 3.88891 11.1562C4.11162 11.3458 4.39606 11.4745 4.71014 11.5162C6.87606 11.8048 9.01286 11.7364 11.2899 11.5162C11.3625 11.5092 11.4326 11.4956 11.5003 11.4775C11.5082 11.476 11.5161 11.4735 11.525 11.4715C11.5951 11.4518 11.6637 11.4262 11.7289 11.3965C11.7333 11.394 11.7378 11.392 11.7417 11.3905C11.8805 11.3292 12.0064 11.2512 12.1166 11.1577C12.2682 11.029 12.3901 10.8712 12.4726 10.6836C12.4805 10.667 12.4879 10.6494 12.4943 10.6324C12.5003 10.6178 12.5052 10.6042 12.5101 10.5901C12.5136 10.5796 12.5175 10.569 12.521 10.5585L12.561 10.4111C12.5798 10.3252 12.5971 10.2387 12.6133 10.1517C12.638 10.0225 12.6598 9.8923 12.6785 9.76158C12.7363 9.36692 12.7709 8.97025 12.7803 8.57156C12.7817 8.53436 12.7822 8.49665 12.7822 8.45894C12.7827 8.40917 12.7837 8.3594 12.7837 8.30912C12.7832 8.26237 12.7763 8.13467 12.6785 6.87677Z" fill="#F3F3F3"/>
<path d="M9.44193 8.30512C9.44933 8.30914 9.44933 8.3202 9.44193 8.32422L8.24145 9.02958L7.04096 9.73495C7.03355 9.73897 7.02466 9.73395 7.02466 9.7254V8.31416V6.90293C7.02466 6.89438 7.03355 6.88935 7.04096 6.89338L8.24145 7.59874L9.44193 8.30512Z" fill="#191919"/>
</svg>
